<svg width="26" height="26" viewBox="0 0 26 26" fill="none" xmlns="http://www.w3.org/2000/svg">
<path d="M12.9999 3.00001C14.9465 2.99745 16.8177 3.75285 18.2169 5.10616C19.6162 6.45948 20.4335 8.30439 20.4959 10.25L20.4999 10.5V14.597L21.8799 17.753C21.9629 17.9432 21.9973 18.151 21.9799 18.3578C21.9625 18.5646 21.8939 18.7638 21.7803 18.9374C21.6667 19.111 21.5116 19.2537 21.3291 19.3524C21.1466 19.4511 20.9424 19.5029 20.7349 19.503L15.9999 19.506C16.0009 20.287 15.6974 21.0376 15.1537 21.5983C14.61 22.159 13.8691 22.4856 13.0885 22.5086C12.3078 22.5317 11.5489 22.2494 10.9731 21.7217C10.3973 21.1941 10.05 20.4627 10.0049 19.683L9.99992 19.503H5.27492C5.06773 19.5028 4.86385 19.4511 4.68157 19.3526C4.4993 19.254 4.34435 19.1118 4.23064 18.9386C4.11693 18.7654 4.04801 18.5667 4.03008 18.3603C4.01215 18.1538 4.04577 17.9462 4.12792 17.756L5.49992 14.598V10.5C5.49992 6.34501 8.85192 3.00001 12.9999 3.00001V3.00001ZM14.4999 19.504L11.4999 19.506C11.4999 19.8913 11.6481 20.2619 11.9138 20.5408C12.1796 20.8198 12.5425 20.9859 12.9273 21.0045C13.3122 21.0231 13.6895 20.893 13.9809 20.641C14.2724 20.389 14.4557 20.0345 14.4929 19.651L14.4989 19.504H14.4999ZM12.9999 4.50001C9.67992 4.50001 6.99992 7.17401 6.99992 10.5V14.91L5.65592 18.004H20.3529L18.9999 14.911V10.513L18.9959 10.288C18.944 8.73342 18.2891 7.26006 17.17 6.17977C16.0509 5.09949 14.5554 4.49706 12.9999 4.50001V4.50001Z" fill="white"/>
<circle cx="19" cy="6" r="3.5" fill="#FF5959" stroke="#F3EFEF"/>
</svg>
