<svg width="153" height="40" viewBox="0 0 153 40" fill="none" xmlns="http://www.w3.org/2000/svg">
<path d="M28.45 23.28V27H25.885V16.395H30.04C31.3 16.395 32.26 16.71 32.92 17.34C33.58 17.96 33.91 18.8 33.91 19.86C33.91 20.52 33.76 21.11 33.46 21.63C33.17 22.14 32.735 22.545 32.155 22.845C31.575 23.135 30.87 23.28 30.04 23.28H28.45ZM29.755 21.225C30.785 21.225 31.3 20.77 31.3 19.86C31.3 18.93 30.785 18.465 29.755 18.465H28.45V21.225H29.755ZM39.0871 18.525C39.9171 18.525 40.6571 18.7 41.3071 19.05C41.9671 19.39 42.4821 19.885 42.8521 20.535C43.2321 21.185 43.4221 21.945 43.4221 22.815C43.4221 23.685 43.2321 24.445 42.8521 25.095C42.4821 25.745 41.9671 26.245 41.3071 26.595C40.6571 26.935 39.9171 27.105 39.0871 27.105C38.2571 27.105 37.5121 26.935 36.8521 26.595C36.1921 26.245 35.6721 25.745 35.2921 25.095C34.9221 24.445 34.7371 23.685 34.7371 22.815C34.7371 21.945 34.9221 21.185 35.2921 20.535C35.6721 19.885 36.1921 19.39 36.8521 19.05C37.5121 18.7 38.2571 18.525 39.0871 18.525ZM39.0871 20.745C38.5971 20.745 38.1821 20.925 37.8421 21.285C37.5121 21.635 37.3471 22.145 37.3471 22.815C37.3471 23.485 37.5121 23.995 37.8421 24.345C38.1821 24.695 38.5971 24.87 39.0871 24.87C39.5771 24.87 39.9871 24.695 40.3171 24.345C40.6471 23.995 40.8121 23.485 40.8121 22.815C40.8121 22.145 40.6471 21.635 40.3171 21.285C39.9871 20.925 39.5771 20.745 39.0871 20.745ZM47.7972 18.525C48.8572 18.525 49.7022 18.79 50.3322 19.32C50.9722 19.85 51.3722 20.55 51.5322 21.42H49.1322C49.0622 21.08 48.9022 20.815 48.6522 20.625C48.4122 20.425 48.1072 20.325 47.7372 20.325C47.4472 20.325 47.2272 20.39 47.0772 20.52C46.9272 20.64 46.8522 20.815 46.8522 21.045C46.8522 21.305 46.9872 21.5 47.2572 21.63C47.5372 21.76 47.9722 21.89 48.5622 22.02C49.2022 22.17 49.7272 22.325 50.1372 22.485C50.5472 22.635 50.9022 22.885 51.2022 23.235C51.5022 23.585 51.6522 24.055 51.6522 24.645C51.6522 25.125 51.5222 25.55 51.2622 25.92C51.0022 26.29 50.6272 26.58 50.1372 26.79C49.6472 27 49.0672 27.105 48.3972 27.105C47.2672 27.105 46.3622 26.855 45.6822 26.355C45.0022 25.855 44.5872 25.14 44.4372 24.21H46.9122C46.9522 24.57 47.1022 24.845 47.3622 25.035C47.6322 25.225 47.9772 25.32 48.3972 25.32C48.6872 25.32 48.9072 25.255 49.0572 25.125C49.2072 24.985 49.2822 24.805 49.2822 24.585C49.2822 24.295 49.1422 24.09 48.8622 23.97C48.5922 23.84 48.1472 23.705 47.5272 23.565C46.9072 23.435 46.3972 23.295 45.9972 23.145C45.5972 22.995 45.2522 22.755 44.9622 22.425C44.6722 22.085 44.5272 21.625 44.5272 21.045C44.5272 20.295 44.8122 19.69 45.3822 19.23C45.9522 18.76 46.7572 18.525 47.7972 18.525ZM57.8125 24.795V27H56.6575C55.6775 27 54.9125 26.76 54.3625 26.28C53.8225 25.79 53.5525 24.985 53.5525 23.865V20.79H52.4275V18.63H53.5525V16.575H56.1175V18.63H57.7975V20.79H56.1175V23.91C56.1175 24.24 56.1825 24.47 56.3125 24.6C56.4525 24.73 56.6825 24.795 57.0025 24.795H57.8125ZM65.0741 20.67V22.8H58.4591V20.67H65.0741ZM72.6187 18.525C73.3087 18.525 73.9237 18.7 74.4637 19.05C75.0137 19.39 75.4437 19.885 75.7537 20.535C76.0737 21.175 76.2337 21.935 76.2337 22.815C76.2337 23.685 76.0737 24.445 75.7537 25.095C75.4437 25.745 75.0137 26.245 74.4637 26.595C73.9237 26.935 73.3087 27.105 72.6187 27.105C71.9787 27.105 71.4287 26.96 70.9687 26.67C70.5087 26.38 70.1737 25.985 69.9637 25.485V30.99H67.3987V18.63H69.9637V20.145C70.1737 19.645 70.5087 19.25 70.9687 18.96C71.4287 18.67 71.9787 18.525 72.6187 18.525ZM71.7937 20.775C71.2537 20.775 70.8087 20.96 70.4587 21.33C70.1187 21.69 69.9487 22.185 69.9487 22.815C69.9487 23.435 70.1187 23.93 70.4587 24.3C70.8087 24.67 71.2537 24.855 71.7937 24.855C72.3437 24.855 72.7837 24.675 73.1137 24.315C73.4537 23.955 73.6237 23.455 73.6237 22.815C73.6237 22.175 73.4537 21.675 73.1137 21.315C72.7837 20.955 72.3437 20.775 71.7937 20.775ZM80.1297 20.205C80.4497 19.695 80.8597 19.29 81.3597 18.99C81.8697 18.69 82.4197 18.54 83.0097 18.54V21.285H82.2747C81.5947 21.285 81.0647 21.43 80.6847 21.72C80.3147 22.01 80.1297 22.5 80.1297 23.19V27H77.5647V18.63H80.1297V20.205ZM87.9982 18.525C88.8282 18.525 89.5682 18.7 90.2182 19.05C90.8782 19.39 91.3932 19.885 91.7632 20.535C92.1432 21.185 92.3332 21.945 92.3332 22.815C92.3332 23.685 92.1432 24.445 91.7632 25.095C91.3932 25.745 90.8782 26.245 90.2182 26.595C89.5682 26.935 88.8282 27.105 87.9982 27.105C87.1682 27.105 86.4232 26.935 85.7632 26.595C85.1032 26.245 84.5832 25.745 84.2032 25.095C83.8332 24.445 83.6482 23.685 83.6482 22.815C83.6482 21.945 83.8332 21.185 84.2032 20.535C84.5832 19.885 85.1032 19.39 85.7632 19.05C86.4232 18.7 87.1682 18.525 87.9982 18.525ZM87.9982 20.745C87.5082 20.745 87.0932 20.925 86.7532 21.285C86.4232 21.635 86.2582 22.145 86.2582 22.815C86.2582 23.485 86.4232 23.995 86.7532 24.345C87.0932 24.695 87.5082 24.87 87.9982 24.87C88.4882 24.87 88.8982 24.695 89.2282 24.345C89.5582 23.995 89.7232 23.485 89.7232 22.815C89.7232 22.145 89.5582 21.635 89.2282 21.285C88.8982 20.925 88.4882 20.745 87.9982 20.745ZM96.8433 18.525C97.4833 18.525 98.0333 18.67 98.4933 18.96C98.9533 19.25 99.2883 19.645 99.4983 20.145V15.9H102.063V27H99.4983V25.485C99.2883 25.985 98.9533 26.38 98.4933 26.67C98.0333 26.96 97.4833 27.105 96.8433 27.105C96.1533 27.105 95.5333 26.935 94.9833 26.595C94.4433 26.245 94.0133 25.745 93.6933 25.095C93.3833 24.445 93.2283 23.685 93.2283 22.815C93.2283 21.935 93.3833 21.175 93.6933 20.535C94.0133 19.885 94.4433 19.39 94.9833 19.05C95.5333 18.7 96.1533 18.525 96.8433 18.525ZM97.6683 20.775C97.1183 20.775 96.6733 20.955 96.3333 21.315C96.0033 21.675 95.8383 22.175 95.8383 22.815C95.8383 23.455 96.0033 23.955 96.3333 24.315C96.6733 24.675 97.1183 24.855 97.6683 24.855C98.2083 24.855 98.6483 24.67 98.9883 24.3C99.3383 23.93 99.5133 23.435 99.5133 22.815C99.5133 22.185 99.3383 21.69 98.9883 21.33C98.6483 20.96 98.2083 20.775 97.6683 20.775ZM112.154 18.63V27H109.574V25.485C109.334 25.975 108.974 26.365 108.494 26.655C108.024 26.945 107.474 27.09 106.844 27.09C105.884 27.09 105.119 26.77 104.549 26.13C103.989 25.49 103.709 24.61 103.709 23.49V18.63H106.259V23.175C106.259 23.745 106.404 24.19 106.694 24.51C106.994 24.82 107.394 24.975 107.894 24.975C108.414 24.975 108.824 24.81 109.124 24.48C109.424 24.15 109.574 23.68 109.574 23.07V18.63H112.154ZM117.702 18.525C118.782 18.525 119.687 18.825 120.417 19.425C121.147 20.015 121.607 20.83 121.797 21.87H119.082C119.002 21.51 118.837 21.23 118.587 21.03C118.337 20.83 118.022 20.73 117.642 20.73C117.192 20.73 116.822 20.91 116.532 21.27C116.242 21.62 116.097 22.135 116.097 22.815C116.097 23.495 116.242 24.015 116.532 24.375C116.822 24.725 117.192 24.9 117.642 24.9C118.022 24.9 118.337 24.8 118.587 24.6C118.837 24.4 119.002 24.12 119.082 23.76H121.797C121.607 24.8 121.147 25.62 120.417 26.22C119.687 26.81 118.782 27.105 117.702 27.105C116.882 27.105 116.152 26.935 115.512 26.595C114.882 26.245 114.387 25.745 114.027 25.095C113.667 24.445 113.487 23.685 113.487 22.815C113.487 21.935 113.662 21.175 114.012 20.535C114.372 19.885 114.872 19.39 115.512 19.05C116.152 18.7 116.882 18.525 117.702 18.525ZM127.876 24.795V27H126.721C125.741 27 124.976 26.76 124.426 26.28C123.886 25.79 123.616 24.985 123.616 23.865V20.79H122.491V18.63H123.616V16.575H126.181V18.63H127.861V20.79H126.181V23.91C126.181 24.24 126.246 24.47 126.376 24.6C126.516 24.73 126.746 24.795 127.066 24.795H127.876ZM129.078 16.275C129.078 15.885 129.218 15.565 129.498 15.315C129.778 15.055 130.148 14.925 130.608 14.925C131.068 14.925 131.438 15.055 131.718 15.315C131.998 15.565 132.138 15.885 132.138 16.275C132.138 16.655 131.998 16.975 131.718 17.235C131.438 17.485 131.068 17.61 130.608 17.61C130.148 17.61 129.778 17.485 129.498 17.235C129.218 16.975 129.078 16.655 129.078 16.275ZM131.883 18.63V27H129.318V18.63H131.883ZM137.569 18.525C138.399 18.525 139.139 18.7 139.789 19.05C140.449 19.39 140.964 19.885 141.334 20.535C141.714 21.185 141.904 21.945 141.904 22.815C141.904 23.685 141.714 24.445 141.334 25.095C140.964 25.745 140.449 26.245 139.789 26.595C139.139 26.935 138.399 27.105 137.569 27.105C136.739 27.105 135.994 26.935 135.334 26.595C134.674 26.245 134.154 25.745 133.774 25.095C133.404 24.445 133.219 23.685 133.219 22.815C133.219 21.945 133.404 21.185 133.774 20.535C134.154 19.885 134.674 19.39 135.334 19.05C135.994 18.7 136.739 18.525 137.569 18.525ZM137.569 20.745C137.079 20.745 136.664 20.925 136.324 21.285C135.994 21.635 135.829 22.145 135.829 22.815C135.829 23.485 135.994 23.995 136.324 24.345C136.664 24.695 137.079 24.87 137.569 24.87C138.059 24.87 138.469 24.695 138.799 24.345C139.129 23.995 139.294 23.485 139.294 22.815C139.294 22.145 139.129 21.635 138.799 21.285C138.469 20.925 138.059 20.745 137.569 20.745ZM148.544 18.54C149.504 18.54 150.264 18.86 150.824 19.5C151.394 20.14 151.679 21.02 151.679 22.14V27H149.114V22.44C149.114 21.88 148.964 21.445 148.664 21.135C148.374 20.815 147.984 20.655 147.494 20.655C146.974 20.655 146.559 20.82 146.249 21.15C145.949 21.48 145.799 21.95 145.799 22.56V27H143.234V18.63H145.799V20.16C146.039 19.66 146.394 19.265 146.864 18.975C147.344 18.685 147.904 18.54 148.544 18.54Z" fill="white"/>
<path d="M14.4383 15H0.561674C0.264317 15 0 15.2759 0 15.5862V28.4138C0 28.7586 0.264317 29 0.561674 29H14.4383C14.7357 29 15 28.7241 15 28.4138V15.5862C15 15.2759 14.7357 15 14.4383 15ZM5.02203 26.6897C5.02203 26.8966 4.85683 27.069 4.69163 27.069H2.37885C2.18062 27.069 2.04846 26.8966 2.04846 26.6897V24.931C2.04846 24.7241 2.18062 24.5862 2.37885 24.5862H4.69163C4.88987 24.5862 5.02203 24.7586 5.02203 24.931V26.6897ZM5.02203 19.069C5.02203 19.2759 4.85683 19.4138 4.69163 19.4138H2.37885C2.18062 19.4138 2.04846 19.2414 2.04846 19.069V17.3103C2.04846 17.1034 2.18062 16.9655 2.37885 16.9655H4.69163C4.88987 16.9655 5.02203 17.1379 5.02203 17.3103V19.069ZM9.01982 26.6897C9.01982 26.8966 8.85462 27.069 8.68943 27.069H6.37665C6.17841 27.069 6.01322 26.8966 6.01322 26.6897V24.931C6.01322 24.7241 6.17841 24.5862 6.37665 24.5862H8.68943C8.88766 24.5862 9.01982 24.7586 9.01982 24.931V26.6897ZM9.01982 19.069C9.01982 19.2759 8.85462 19.4138 8.68943 19.4138H6.37665C6.17841 19.4138 6.01322 19.2414 6.01322 19.069V17.3103C6.01322 17.1034 6.17841 16.9655 6.37665 16.9655H8.68943C8.88766 16.9655 9.01982 17.1379 9.01982 17.3103V19.069ZM12.9846 26.6897C12.9846 26.8966 12.8194 27.069 12.6542 27.069H10.3414C10.1432 27.069 10.011 26.8966 10.011 26.6897V24.931C10.011 24.7241 10.1762 24.5862 10.3414 24.5862H12.6542C12.8524 24.5862 12.9846 24.7586 12.9846 24.931V26.6897ZM12.9846 19.069C12.9846 19.2759 12.8194 19.4138 12.6542 19.4138H10.3414C10.1432 19.4138 10.011 19.2414 10.011 19.069V17.3103C10.011 17.1034 10.1762 16.9655 10.3414 16.9655H12.6542C12.8524 16.9655 12.9846 17.1379 12.9846 17.3103V19.069Z" fill="#F9F9FF"/>
</svg>
