<svg version="1.2" xmlns="http://www.w3.org/2000/svg" viewBox="0 0 255 44" width="255" height="44"><style>.a{fill:#f9f9ff}.b{fill:#317396}</style><path class="a" d="m207 0c11.9 0 21.5 9.6 21.5 21.5 0 10.7 7.9 19.8 18.5 21.3l8 1.2h-255l8-1.2c10.6-1.5 18.5-10.6 18.5-21.3 0-11.9 9.6-21.5 21.5-21.5z"/><path fill-rule="evenodd" class="b" d="m79.4 22.3v3.7h-2.5v-10.6h4.1q1.9 0 2.9 0.9 1 1 1 2.6 0 1-0.4 1.7-0.5 0.8-1.3 1.2-0.9 0.5-2.2 0.5zm1.3-2.1q1.6 0 1.6-1.3 0-1.4-1.6-1.4h-1.3v2.7zm9.4-2.7q1.2 0 2.2 0.5 1 0.6 1.5 1.5 0.6 1 0.6 2.3 0 1.3-0.6 2.3-0.5 1-1.5 1.5-1 0.5-2.2 0.5-1.3 0-2.3-0.5-1-0.5-1.5-1.5-0.6-1-0.6-2.3 0-1.3 0.6-2.3 0.5-0.9 1.5-1.5 1-0.5 2.3-0.5zm0 2.2q-0.8 0-1.3 0.6-0.5 0.5-0.5 1.5 0 1 0.5 1.5 0.5 0.6 1.3 0.6 0.7 0 1.2-0.6 0.5-0.5 0.5-1.5 0-1-0.5-1.5-0.5-0.6-1.2-0.6zm8.7-2.2q1.6 0 2.5 0.8 1 0.8 1.2 2.1h-2.4q-0.1-0.5-0.5-0.8-0.3-0.3-0.9-0.3-0.4 0-0.6 0.2-0.3 0.2-0.3 0.5 0 0.4 0.4 0.6 0.5 0.2 1.3 0.4 1 0.2 1.6 0.5 0.6 0.2 1.1 0.7 0.4 0.6 0.4 1.4 0 0.8-0.4 1.3-0.3 0.6-1.1 0.9-0.7 0.3-1.7 0.3-1.7 0-2.7-0.7-1.1-0.8-1.3-2.2h2.5q0.1 0.5 0.4 0.8 0.5 0.3 1.1 0.3 0.4 0 0.6-0.2 0.3-0.2 0.3-0.5 0-0.5-0.5-0.6-0.4-0.2-1.3-0.4-0.9-0.2-1.5-0.5-0.6-0.2-1.1-0.7-0.4-0.5-0.4-1.4 0-1.1 0.9-1.8 0.8-0.7 2.4-0.7zm10 6.3v2.2h-1.2q-1.4 0-2.3-0.7-0.8-0.8-0.8-2.4v-3.1h-1.1v-2.2h1.1v-2h2.6v2h1.7v2.2h-1.7v3.1q0 0.5 0.2 0.7 0.2 0.2 0.7 0.2zm7.2-4.1v2.1h-6.6v-2.1zm7.6-2.2q1 0 1.8 0.5 0.8 0.6 1.3 1.5 0.5 1 0.5 2.3 0 1.3-0.5 2.3-0.5 1-1.3 1.5-0.8 0.5-1.8 0.5-1 0-1.7-0.4-0.7-0.5-1-1.2v5.5h-2.5v-12.4h2.5v1.5q0.3-0.7 1-1.1 0.7-0.5 1.7-0.5zm-0.8 2.3q-0.9 0-1.4 0.5-0.5 0.6-0.5 1.5 0 0.9 0.5 1.5 0.5 0.6 1.4 0.6 0.8 0 1.3-0.6 0.5-0.5 0.5-1.5 0-0.9-0.5-1.5-0.5-0.5-1.3-0.5zm8.3-0.6q0.5-0.8 1.2-1.2 0.8-0.5 1.7-0.5v2.8h-0.8q-1 0-1.6 0.4-0.5 0.5-0.5 1.5v3.8h-2.6v-8.4h2.6zm7.9-1.7q1.2 0 2.2 0.6 1 0.5 1.5 1.5 0.6 0.9 0.6 2.2 0 1.3-0.6 2.3-0.5 1-1.5 1.5-1 0.5-2.2 0.5-1.3 0-2.3-0.5-1-0.5-1.5-1.5-0.6-1-0.6-2.3 0-1.3 0.6-2.2 0.5-1 1.5-1.5 1-0.6 2.3-0.6zm0 2.3q-0.8 0-1.3 0.5-0.5 0.5-0.5 1.5 0 1 0.5 1.6 0.5 0.5 1.3 0.5 0.7 0 1.2-0.5 0.5-0.6 0.5-1.6 0-1-0.5-1.5-0.5-0.5-1.2-0.5zm8.8-2.3q1 0 1.7 0.5 0.6 0.4 1 1.2v-4.3h2.5v11.1h-2.5v-1.5q-0.4 0.8-1 1.2-0.7 0.4-1.7 0.4-1 0-1.9-0.5-0.8-0.5-1.2-1.5-0.5-1-0.5-2.3 0-1.3 0.5-2.2 0.4-1 1.2-1.5 0.9-0.6 1.9-0.6zm0.8 2.3q-0.8 0-1.3 0.5-0.5 0.6-0.5 1.5 0 1 0.5 1.5 0.5 0.6 1.3 0.6 0.8 0 1.3-0.6 0.6-0.5 0.6-1.5 0-0.9-0.6-1.4-0.5-0.6-1.3-0.6zm14.5-2.1v8.3h-2.6v-1.5q-0.3 0.7-1 1.2-0.8 0.4-1.7 0.4-1.4 0-2.3-0.9-0.8-1-0.8-2.7v-4.8h2.5v4.5q0 0.9 0.5 1.3 0.4 0.5 1.2 0.5 0.7 0 1.2-0.5 0.4-0.5 0.4-1.4v-4.4zm5.6-0.2q1.6 0 2.7 0.9 1.1 0.9 1.4 2.5h-2.7q-0.2-0.5-0.5-0.8-0.4-0.3-1-0.3-0.7 0-1.1 0.5-0.4 0.5-0.4 1.5 0 1.1 0.4 1.6 0.4 0.5 1.1 0.5 0.6 0 1-0.3 0.3-0.3 0.5-0.8h2.7q-0.3 1.5-1.4 2.4-1.1 0.9-2.7 0.9-1.2 0-2.2-0.5-1-0.5-1.5-1.5-0.5-1-0.5-2.3 0-1.3 0.5-2.2 0.5-1 1.5-1.5 1-0.6 2.2-0.6zm10.2 6.3v2.2h-1.2q-1.5 0-2.3-0.7-0.8-0.7-0.8-2.4v-3.1h-1.1v-2.1h1.1v-2.1h2.6v2.1h1.6v2.1h-1.6v3.1q0 0.5 0.2 0.7 0.2 0.2 0.6 0.2zm1.2-8.5q0-0.6 0.5-1 0.4-0.4 1.1-0.4 0.7 0 1.1 0.4 0.4 0.4 0.4 1 0 0.6-0.4 1-0.4 0.3-1.1 0.3-0.7 0-1.1-0.3-0.5-0.4-0.5-1zm2.9 2.4v8.3h-2.6v-8.3zm5.7-0.2q1.2 0 2.2 0.6 1 0.5 1.5 1.5 0.6 0.9 0.6 2.2 0 1.3-0.6 2.3-0.5 1-1.5 1.5-1 0.5-2.2 0.5-1.3 0-2.3-0.5-1-0.5-1.5-1.5-0.6-1-0.6-2.3 0-1.3 0.6-2.2 0.5-1 1.5-1.5 1-0.6 2.3-0.6zm0 2.3q-0.8 0-1.3 0.5-0.5 0.5-0.5 1.5 0 1 0.5 1.6 0.5 0.5 1.3 0.5 0.7 0 1.2-0.5 0.5-0.6 0.5-1.6 0-1-0.5-1.5-0.5-0.5-1.2-0.5zm10.9-2.2q1.5 0 2.3 0.9 0.9 1 0.9 2.7v4.8h-2.6v-4.5q0-0.9-0.4-1.3-0.5-0.5-1.2-0.5-0.8 0-1.2 0.5-0.5 0.5-0.5 1.4v4.4h-2.6v-8.3h2.6v1.5q0.4-0.8 1.1-1.2 0.7-0.4 1.6-0.4z"/><path fill-rule="evenodd" class="b" d="m66 14.6v12.8c0 0.3-0.3 0.6-0.6 0.6h-13.8c-0.3 0-0.6-0.2-0.6-0.6v-12.8c0-0.3 0.3-0.6 0.6-0.6h13.8c0.3 0 0.6 0.3 0.6 0.6zm-10 9.3c0-0.1-0.1-0.3-0.3-0.3h-2.3c-0.2 0-0.4 0.1-0.4 0.3v1.8c0 0.2 0.2 0.4 0.4 0.4h2.3c0.2 0 0.3-0.2 0.3-0.4zm0-7.6c0-0.2-0.1-0.4-0.3-0.4h-2.3c-0.2 0-0.4 0.2-0.4 0.4v1.7c0 0.2 0.2 0.4 0.4 0.4h2.3c0.2 0 0.3-0.2 0.3-0.4zm4 7.6c0-0.1-0.1-0.3-0.3-0.3h-2.3c-0.2 0-0.4 0.1-0.4 0.3v1.8c0 0.2 0.2 0.4 0.4 0.4h2.3c0.2 0 0.3-0.2 0.3-0.4zm0-7.6c0-0.2-0.1-0.4-0.3-0.4h-2.3c-0.2 0-0.4 0.2-0.4 0.4v1.7c0 0.2 0.2 0.4 0.4 0.4h2.3c0.2 0 0.3-0.1 0.3-0.4zm4 7.7c0-0.2-0.1-0.4-0.3-0.4h-2.4c-0.1 0-0.3 0.2-0.3 0.4v1.7c0 0.2 0.1 0.4 0.3 0.4h2.4c0.1 0 0.3-0.2 0.3-0.4zm0-7.6c0-0.2-0.1-0.3-0.3-0.3h-2.4c-0.1 0-0.3 0.1-0.3 0.3v1.8c0 0.1 0.1 0.3 0.3 0.3h2.4c0.1 0 0.3-0.1 0.3-0.3z"/></svg>