<svg version="1.2" xmlns="http://www.w3.org/2000/svg" viewBox="0 0 184 14" width="184" height="14"><style>.a{fill:#f9f9ff}</style><path fill-rule="evenodd" class="a" d="m24.8 12v-10.2h4.2q1.1 0 2 0.5 0.8 0.4 1.2 1.2 0.5 0.8 0.5 1.8 0 1.1-0.5 1.9-0.4 0.8-1.3 1.2-0.8 0.4-2 0.4h-1.7v3.2zm2.5-3.2v-1.9h-0.9v1.9zm1.2-1.9q0.5 0 0.9-0.2 0.4-0.2 0.6-0.5 0.2-0.4 0.2-0.9 0-0.4-0.2-0.8-0.2-0.3-0.6-0.5-0.4-0.2-0.9-0.2h-1.2v3.1zm16.4 0q0 1.7-0.6 2.9-0.7 1.1-1.8 1.7-1.1 0.6-2.4 0.6-1.4 0-2.5-0.6-1.1-0.6-1.7-1.7-0.7-1.2-0.7-2.9 0-1.7 0.7-2.8 0.6-1.2 1.7-1.8 1.1-0.6 2.5-0.6 1.3 0 2.4 0.6 1.1 0.6 1.8 1.8 0.6 1.1 0.6 2.8zm-2.5 0q0-1-0.3-1.7-0.2-0.7-0.8-1-0.5-0.4-1.2-0.4-0.8 0-1.3 0.4-0.5 0.3-0.8 1-0.3 0.7-0.3 1.7 0 1 0.3 1.7 0.3 0.7 0.8 1 0.5 0.4 1.3 0.4 0.7 0 1.2-0.4 0.6-0.3 0.8-1 0.3-0.7 0.3-1.7zm10.9-2q-0.1-0.6-0.5-0.9-0.4-0.3-1.1-0.3-0.5 0-0.8 0.1-0.3 0.2-0.4 0.4-0.2 0.2-0.2 0.5 0 0.2 0.1 0.4 0.1 0.1 0.3 0.3 0.2 0.1 0.5 0.2 0.2 0.1 0.6 0.2l0.9 0.2q0.7 0.1 1.3 0.4 0.6 0.3 1 0.7 0.4 0.4 0.6 0.8 0.2 0.5 0.2 1.1 0 1-0.5 1.7-0.5 0.7-1.4 1.1-0.9 0.3-2.2 0.3-1.3 0-2.2-0.4-1-0.3-1.5-1.1-0.5-0.8-0.5-2h2.3q0.1 0.5 0.3 0.8 0.2 0.4 0.6 0.5 0.5 0.2 1 0.2 0.5 0 0.8-0.1 0.4-0.2 0.6-0.4 0.2-0.2 0.2-0.6 0-0.2-0.2-0.5-0.2-0.2-0.5-0.3-0.4-0.2-1-0.3l-1-0.2q-1.3-0.3-2.1-1-0.8-0.7-0.8-1.9 0-0.9 0.6-1.6 0.5-0.7 1.4-1.1 0.9-0.4 2-0.4 1.2 0 2.1 0.4 0.9 0.4 1.3 1.1 0.5 0.7 0.5 1.7zm4.8-1.1v-2h8.6v2h-3v8.2h-2.5v-8.2zm15.9 2.2v1.8h-4.7v-1.8zm3.1 6v-10.2h4.2q1.2 0 2 0.5 0.8 0.4 1.3 1.2 0.4 0.8 0.4 1.8 0 1.1-0.4 1.9-0.5 0.8-1.3 1.2-0.9 0.4-2 0.4h-1.7v3.2zm2.4-3.2v-1.9h-0.9v1.9zm1.2-1.9q0.6 0 1-0.2 0.3-0.2 0.5-0.5 0.2-0.4 0.2-0.9 0-0.4-0.2-0.8-0.2-0.3-0.5-0.5-0.4-0.2-1-0.2h-1.2v3.1zm6.9 5.1v-10.2h4.2q1.1 0 2 0.4 0.8 0.4 1.2 1.2 0.5 0.8 0.5 1.8 0 1.1-0.5 1.8-0.4 0.7-1.3 1.1l2.1 3.9h-2.6l-1.9-3.5h-1.3v3.5zm2.5-3.5v-1.9h-1v1.9zm1.2-1.9q0.6 0 1-0.2 0.3-0.1 0.5-0.4 0.2-0.3 0.2-0.8 0-0.5-0.2-0.8-0.2-0.3-0.5-0.4-0.4-0.2-1-0.2h-1.2v2.8zm16.6 0.3q0 1.7-0.6 2.9-0.7 1.1-1.8 1.7-1.1 0.6-2.4 0.6-1.4 0-2.5-0.6-1.1-0.6-1.8-1.7-0.6-1.2-0.6-2.9 0-1.7 0.6-2.8 0.7-1.2 1.8-1.8 1.1-0.6 2.5-0.6 1.3 0 2.4 0.6 1.1 0.6 1.8 1.8 0.6 1.1 0.6 2.8zm-2.5 0q0-1-0.3-1.7-0.3-0.7-0.8-1-0.5-0.4-1.2-0.4-0.8 0-1.3 0.4-0.5 0.3-0.8 1-0.3 0.7-0.3 1.7 0 1 0.3 1.7 0.3 0.7 0.8 1 0.5 0.4 1.3 0.4 0.7 0 1.2-0.4 0.5-0.3 0.8-1 0.3-0.7 0.3-1.7zm9.1 5.1h-3.7v-10.2h3.7q1.6 0 2.7 0.6 1.1 0.6 1.7 1.8 0.6 1.1 0.6 2.7 0 1.6-0.6 2.7-0.6 1.2-1.7 1.8-1.1 0.6-2.7 0.6zm-1.3-2.1h1.2q0.9 0 1.5-0.3 0.6-0.3 0.9-0.9 0.3-0.7 0.3-1.8 0-1.1-0.3-1.7-0.3-0.7-0.9-1-0.6-0.3-1.5-0.3h-1.2zm15.3-8.1h2.5v6.6q0 1.1-0.5 2-0.6 0.8-1.6 1.3-0.9 0.4-2.2 0.4-1.3 0-2.3-0.4-0.9-0.5-1.5-1.3-0.5-0.9-0.5-2v-6.6h2.4v6.4q0 0.5 0.3 0.9 0.2 0.4 0.6 0.7 0.4 0.2 1 0.2 0.5 0 1-0.2 0.4-0.3 0.6-0.7 0.2-0.4 0.2-0.9zm14.7 3.7h-2.5q-0.1-0.4-0.2-0.7-0.2-0.3-0.4-0.5-0.3-0.3-0.6-0.4-0.4-0.1-0.8-0.1-0.7 0-1.3 0.4-0.5 0.3-0.8 1-0.3 0.7-0.3 1.7 0 1 0.3 1.7 0.3 0.7 0.8 1 0.6 0.3 1.3 0.3 0.4 0 0.7-0.1 0.4-0.1 0.6-0.3 0.3-0.2 0.5-0.5 0.1-0.2 0.2-0.6h2.5q-0.1 0.7-0.4 1.3-0.3 0.7-0.9 1.2-0.6 0.6-1.4 0.9-0.8 0.3-1.8 0.3-1.4 0-2.5-0.6-1.1-0.6-1.7-1.8-0.7-1.1-0.7-2.8 0-1.7 0.7-2.9 0.6-1.1 1.7-1.7 1.1-0.7 2.5-0.7 0.9 0 1.7 0.3 0.8 0.3 1.4 0.8 0.5 0.4 0.9 1.1 0.4 0.8 0.5 1.7zm2.5-1.7v-2h8.6v2h-3.1v8.2h-2.5v-8.2zm13.7-2v10.2h-2.4v-10.2zm12.5 5.1q0 1.7-0.6 2.8-0.7 1.2-1.8 1.8-1.1 0.6-2.4 0.6-1.4 0-2.5-0.6-1.1-0.6-1.8-1.8-0.6-1.1-0.6-2.8 0-1.7 0.6-2.9 0.7-1.1 1.8-1.7 1.1-0.7 2.5-0.7 1.3 0 2.4 0.7 1.1 0.6 1.8 1.7 0.6 1.2 0.6 2.9zm-2.5 0q0-1-0.3-1.7-0.3-0.7-0.8-1-0.5-0.4-1.2-0.4-0.8 0-1.3 0.4-0.5 0.3-0.8 1-0.3 0.7-0.3 1.7 0 1 0.3 1.7 0.3 0.6 0.8 1 0.5 0.3 1.3 0.3 0.7 0 1.2-0.3 0.5-0.4 0.8-1 0.3-0.7 0.3-1.7zm14-5.1v10.2h-2.1l-4-5.9h-0.1v5.9h-2.5v-10.2h2.2l4 5.9h0.1v-5.9z"/><path fill-rule="evenodd" class="a" d="m15 0.6v12.8c0 0.3-0.3 0.6-0.6 0.6h-13.8c-0.3 0-0.6-0.2-0.6-0.6v-12.8c0-0.3 0.3-0.6 0.6-0.6h13.8c0.3 0 0.6 0.3 0.6 0.6zm-10 9.3c0-0.1-0.1-0.3-0.3-0.3h-2.3c-0.2 0-0.4 0.1-0.4 0.3v1.8c0 0.2 0.2 0.4 0.4 0.4h2.3c0.2 0 0.3-0.2 0.3-0.4zm0-7.6c0-0.2-0.1-0.4-0.3-0.4h-2.3c-0.2 0-0.4 0.2-0.4 0.4v1.7c0 0.2 0.2 0.4 0.4 0.4h2.3c0.2 0 0.3-0.2 0.3-0.4zm4 7.6c0-0.1-0.1-0.3-0.3-0.3h-2.3c-0.2 0-0.4 0.1-0.4 0.3v1.8c0 0.2 0.2 0.4 0.4 0.4h2.3c0.2 0 0.3-0.2 0.3-0.4zm0-7.6c0-0.2-0.1-0.4-0.3-0.4h-2.3c-0.2 0-0.4 0.2-0.4 0.4v1.7c0 0.2 0.2 0.4 0.4 0.4h2.3c0.2 0 0.3-0.1 0.3-0.4zm4 7.7c0-0.2-0.1-0.4-0.3-0.4h-2.4c-0.1 0-0.3 0.2-0.3 0.4v1.7c0 0.2 0.1 0.4 0.3 0.4h2.4c0.1 0 0.3-0.2 0.3-0.4zm0-7.6c0-0.2-0.1-0.3-0.3-0.3h-2.4c-0.1 0-0.3 0.1-0.3 0.3v1.8c0 0.1 0.1 0.3 0.3 0.3h2.4c0.1 0 0.3-0.1 0.3-0.3z"/></svg>