<svg version="1.2" xmlns="http://www.w3.org/2000/svg" viewBox="0 0 254 44" width="254" height="44"><style>.a{fill:#f9f9ff}.b{fill:#195244}.c{fill:#356454}</style><path class="a" d="m206.1 0c11.9 0 21.5 9.6 21.5 21.5 0 10.7 7.9 19.8 18.5 21.4l7.9 1.1h-254l7.9-1.1c10.6-1.6 18.5-10.7 18.5-21.4 0-11.9 9.6-21.5 21.5-21.5z"/><path fill-rule="evenodd" class="b" d="m67.8 25v-10.2h4.2q1.1 0 2 0.5 0.8 0.4 1.2 1.2 0.5 0.8 0.5 1.8 0 1.1-0.5 1.9-0.4 0.8-1.3 1.2-0.8 0.4-2 0.4l-1.7 0.2v3zm2.5-3v-0.5 0.5zm0-2.1h1.2q0.6 0 0.9-0.2 0.4-0.2 0.6-0.5 0.2-0.4 0.2-0.9 0-0.4-0.2-0.8-0.2-0.3-0.6-0.5-0.4-0.2-0.9-0.2h-1.2v4.7zm8 5.2v-10.2h4.2q1.2 0 2 0.4 0.8 0.4 1.3 1.2 0.4 0.7 0.4 1.8 0 1-0.4 1.8-0.5 0.7-1.3 1.1-0.4 0.1-0.7 0.2h0.5l2.3 3.7h-2.7l-1.9-3.5h0.1l-1.3 0.1v3.4zm2.4-3.4v-2 2zm1.2-2.1q0.6 0 0.9-0.1 0.4-0.2 0.6-0.5 0.2-0.3 0.2-0.7 0-0.5-0.2-0.8-0.2-0.3-0.6-0.5-0.4-0.1-0.9-0.1h-1.2v2.8zm7 5.4v-10.2h7.1v2h-4.7v2.1h4.3v2h-4.3v2.1h4.7v2zm14.9-6v1.9h-4.7v-1.9zm3.1 6v-10.2h4.2q1.2 0 2 0.5 0.8 0.4 1.3 1.2 0.4 0.8 0.4 1.9 0 1-0.4 1.8-0.5 0.8-1.3 1.2-0.9 0.5-2.1 0.5l-1.6 0.1v3zm2.4-3v-2.1 2.1zm1.2-2.1q0.5 0 0.9-0.2 0.4-0.2 0.6-0.5 0.2-0.4 0.2-0.8 0-0.5-0.2-0.8-0.2-0.4-0.6-0.6-0.4-0.2-0.9-0.2h-1.2v3.1zm6.8 5.1v-10.1h4.2q1.2 0 2 0.4 0.8 0.4 1.3 1.2 0.4 0.7 0.4 1.8 0 1-0.4 1.8-0.5 0.7-1.3 1.1-0.2 0-0.3 0.1h0.2l2.2 3.7h-2.7l-1.9-3.4-1.2 0.1 0.1-2.1h1.1q0.5 0 0.9-0.1 0.4-0.2 0.6-0.5 0.2-0.3 0.2-0.7 0-0.5-0.2-0.8-0.2-0.3-0.6-0.5-0.4-0.2-0.9-0.2h-1.2v8.2zm20.3-5q0 1.6-0.7 2.8-0.6 1.2-1.7 1.8-1.1 0.6-2.5 0.6-1.4 0-2.5-0.6-1.1-0.6-1.7-1.8-0.7-1.2-0.7-2.8 0-1.7 0.7-2.9 0.6-1.2 1.7-1.8 1.1-0.6 2.5-0.6 1.4 0 2.5 0.6 1.1 0.6 1.7 1.8 0.7 1.2 0.7 2.9zm-2.6 0q0-1-0.2-1.7-0.3-0.7-0.8-1.1-0.6-0.3-1.3-0.3-0.7 0-1.3 0.3-0.5 0.4-0.8 1.1-0.3 0.7-0.3 1.7 0 0.9 0.3 1.6 0.3 0.7 0.8 1.1 0.6 0.3 1.3 0.3 0.7 0 1.3-0.3 0.5-0.4 0.8-1.1 0.2-0.7 0.2-1.6zm9.2 5h-3.8v-10.1h3.8q1.5 0 2.6 0.6 1.2 0.6 1.8 1.7 0.6 1.2 0.6 2.8 0 1.5-0.6 2.7-0.6 1.1-1.8 1.7-1.1 0.6-2.6 0.6zm-1.3-2.1h1.2q0.8 0 1.4-0.2 0.6-0.3 0.9-1 0.3-0.7 0.3-1.7 0-1.1-0.3-1.8-0.3-0.7-0.9-0.9-0.6-0.3-1.5-0.3h-1.1zm15.3-8.1h2.4v6.5q0 1.2-0.5 2-0.5 0.9-1.5 1.3-1 0.5-2.3 0.5-1.3 0-2.2-0.5-1-0.4-1.5-1.3-0.6-0.8-0.6-2v-6.5h2.5v6.3q0 0.6 0.2 1 0.2 0.4 0.7 0.6 0.4 0.3 0.9 0.3 0.6 0 1-0.3 0.4-0.2 0.6-0.6 0.3-0.4 0.3-1zm14.6 3.7h-2.5q0-0.4-0.2-0.7-0.1-0.3-0.4-0.5-0.2-0.2-0.6-0.3-0.3-0.1-0.7-0.1-0.8 0-1.3 0.3-0.5 0.4-0.8 1.1-0.3 0.6-0.3 1.6 0 1 0.3 1.7 0.3 0.7 0.8 1.1 0.5 0.3 1.2 0.3 0.5 0 0.8-0.1 0.3-0.1 0.6-0.3 0.2-0.2 0.4-0.5 0.2-0.3 0.2-0.7h2.5q0 0.7-0.4 1.4-0.3 0.6-0.9 1.2-0.5 0.5-1.3 0.8-0.9 0.4-1.9 0.4-1.4 0-2.5-0.7-1.1-0.6-1.7-1.7-0.6-1.2-0.6-2.9 0-1.7 0.6-2.8 0.7-1.2 1.7-1.8 1.1-0.6 2.5-0.6 0.9 0 1.7 0.3 0.8 0.2 1.4 0.7 0.6 0.5 1 1.2 0.3 0.7 0.4 1.6zm2.5-1.7v-2h8.6v2h-3.1v8.2h-2.4v-8.2zm13.7-2v10.2h-2.5v-10.2zm12.6 5.1q0 1.7-0.7 2.9-0.6 1.1-1.7 1.7-1.1 0.7-2.5 0.7-1.4 0-2.5-0.7-1.1-0.6-1.7-1.7-0.7-1.2-0.7-2.9 0-1.7 0.7-2.8 0.6-1.2 1.7-1.8 1.1-0.6 2.5-0.6 1.4 0 2.5 0.6 1.1 0.6 1.7 1.8 0.7 1.1 0.7 2.8zm-2.6 0q0-1-0.2-1.7-0.3-0.6-0.9-1-0.5-0.3-1.2-0.3-0.7 0-1.3 0.3-0.5 0.4-0.8 1-0.3 0.7-0.3 1.7 0 1 0.3 1.7 0.3 0.7 0.8 1 0.6 0.4 1.3 0.4 0.7 0 1.2-0.4 0.6-0.3 0.9-1 0.2-0.7 0.2-1.7zm14.1-5.1v10.2h-2.1l-4.1-5.9h-0.1v5.9h-2.4v-10.2h2.1l4 5.9h0.1v-5.9z"/><path fill-rule="evenodd" class="c" d="m57 18v9.3c0 0.4-0.3 0.7-0.7 0.7h-14.6c-0.4 0-0.7-0.3-0.7-0.7v-9.3c0-0.1 0-0.2 0-0.3v-0.1l-1-3.2c-0.1-0.4 0.1-0.8 0.5-0.9l14-4.5c0.4-0.1 0.8 0.1 0.9 0.5l0.9 3.3c0.1 0.4-0.1 0.8-0.4 0.9l-11.2 3.5h11.6c0.4 0 0.7 0.4 0.7 0.8zm-4.3-4.9l2.1-0.6-0.6-1.9-1 0.3zm-3.1 1l2.2-0.7 0.4-2.1-2.1 0.7zm-3.1 1l2.1-0.7 0.5-2.2-2.1 0.7zm-3.6-0.9l-1.4 0.4 0.6 1.9 0.3-0.1zm0.5 1.8l2.1-0.7 0.5-2.2-2.1 0.7zm10.3 7.9c0-0.2-0.2-0.4-0.4-0.4h-8.7c-0.2 0-0.4 0.2-0.4 0.4 0 0.3 0.2 0.5 0.4 0.5h8.7c0.2 0 0.4-0.2 0.4-0.5zm0-2.8c0-0.2-0.2-0.4-0.4-0.4h-8.7c-0.2 0-0.4 0.2-0.4 0.4 0 0.3 0.2 0.5 0.4 0.5h8.7c0.2 0 0.4-0.2 0.4-0.5z"/></svg>