<svg width="147" height="40" viewBox="0 0 147 40" fill="none" xmlns="http://www.w3.org/2000/svg">
<path d="M30.45 23.28V27H27.885V16.395H32.04C33.3 16.395 34.26 16.71 34.92 17.34C35.58 17.96 35.91 18.8 35.91 19.86C35.91 20.52 35.76 21.11 35.46 21.63C35.17 22.14 34.735 22.545 34.155 22.845C33.575 23.135 32.87 23.28 32.04 23.28H30.45ZM31.755 21.225C32.785 21.225 33.3 20.77 33.3 19.86C33.3 18.93 32.785 18.465 31.755 18.465H30.45V21.225H31.755ZM39.7371 20.205C40.0571 19.695 40.4671 19.29 40.9671 18.99C41.4771 18.69 42.0271 18.54 42.6171 18.54V21.285H41.8821C41.2021 21.285 40.6721 21.43 40.2921 21.72C39.9221 22.01 39.7371 22.5 39.7371 23.19V27H37.1721V18.63H39.7371V20.205ZM51.6407 22.59C51.6407 22.8 51.6157 23.03 51.5657 23.28H45.7607C45.7907 23.91 45.9507 24.365 46.2407 24.645C46.5307 24.915 46.9007 25.05 47.3507 25.05C47.7307 25.05 48.0457 24.955 48.2957 24.765C48.5457 24.575 48.7107 24.33 48.7907 24.03H51.5057C51.3957 24.62 51.1557 25.15 50.7857 25.62C50.4157 26.08 49.9457 26.445 49.3757 26.715C48.8057 26.975 48.1707 27.105 47.4707 27.105C46.6507 27.105 45.9207 26.935 45.2807 26.595C44.6507 26.245 44.1557 25.745 43.7957 25.095C43.4357 24.445 43.2557 23.685 43.2557 22.815C43.2557 21.935 43.4307 21.175 43.7807 20.535C44.1407 19.885 44.6407 19.39 45.2807 19.05C45.9207 18.7 46.6507 18.525 47.4707 18.525C48.3007 18.525 49.0307 18.695 49.6607 19.035C50.2907 19.375 50.7757 19.855 51.1157 20.475C51.4657 21.085 51.6407 21.79 51.6407 22.59ZM49.0457 22.2C49.0557 21.65 48.9057 21.24 48.5957 20.97C48.2957 20.69 47.9207 20.55 47.4707 20.55C47.0007 20.55 46.6107 20.69 46.3007 20.97C45.9907 21.25 45.8157 21.66 45.7757 22.2H49.0457ZM58.7978 20.67V22.8H52.1828V20.67H58.7978ZM66.3423 18.525C67.0323 18.525 67.6473 18.7 68.1873 19.05C68.7373 19.39 69.1673 19.885 69.4773 20.535C69.7973 21.175 69.9573 21.935 69.9573 22.815C69.9573 23.685 69.7973 24.445 69.4773 25.095C69.1673 25.745 68.7373 26.245 68.1873 26.595C67.6473 26.935 67.0323 27.105 66.3423 27.105C65.7023 27.105 65.1523 26.96 64.6923 26.67C64.2323 26.38 63.8973 25.985 63.6873 25.485V30.99H61.1223V18.63H63.6873V20.145C63.8973 19.645 64.2323 19.25 64.6923 18.96C65.1523 18.67 65.7023 18.525 66.3423 18.525ZM65.5173 20.775C64.9773 20.775 64.5323 20.96 64.1823 21.33C63.8423 21.69 63.6723 22.185 63.6723 22.815C63.6723 23.435 63.8423 23.93 64.1823 24.3C64.5323 24.67 64.9773 24.855 65.5173 24.855C66.0673 24.855 66.5073 24.675 66.8373 24.315C67.1773 23.955 67.3473 23.455 67.3473 22.815C67.3473 22.175 67.1773 21.675 66.8373 21.315C66.5073 20.955 66.0673 20.775 65.5173 20.775ZM73.8533 20.205C74.1733 19.695 74.5833 19.29 75.0833 18.99C75.5933 18.69 76.1433 18.54 76.7333 18.54V21.285H75.9983C75.3183 21.285 74.7883 21.43 74.4083 21.72C74.0383 22.01 73.8533 22.5 73.8533 23.19V27H71.2883V18.63H73.8533V20.205ZM81.7219 18.525C82.5519 18.525 83.2919 18.7 83.9419 19.05C84.6019 19.39 85.1169 19.885 85.4869 20.535C85.8669 21.185 86.0569 21.945 86.0569 22.815C86.0569 23.685 85.8669 24.445 85.4869 25.095C85.1169 25.745 84.6019 26.245 83.9419 26.595C83.2919 26.935 82.5519 27.105 81.7219 27.105C80.8919 27.105 80.1469 26.935 79.4869 26.595C78.8269 26.245 78.3069 25.745 77.9269 25.095C77.5569 24.445 77.3719 23.685 77.3719 22.815C77.3719 21.945 77.5569 21.185 77.9269 20.535C78.3069 19.885 78.8269 19.39 79.4869 19.05C80.1469 18.7 80.8919 18.525 81.7219 18.525ZM81.7219 20.745C81.2319 20.745 80.8169 20.925 80.4769 21.285C80.1469 21.635 79.9819 22.145 79.9819 22.815C79.9819 23.485 80.1469 23.995 80.4769 24.345C80.8169 24.695 81.2319 24.87 81.7219 24.87C82.2119 24.87 82.6219 24.695 82.9519 24.345C83.2819 23.995 83.4469 23.485 83.4469 22.815C83.4469 22.145 83.2819 21.635 82.9519 21.285C82.6219 20.925 82.2119 20.745 81.7219 20.745ZM90.567 18.525C91.207 18.525 91.757 18.67 92.217 18.96C92.677 19.25 93.012 19.645 93.222 20.145V15.9H95.787V27H93.222V25.485C93.012 25.985 92.677 26.38 92.217 26.67C91.757 26.96 91.207 27.105 90.567 27.105C89.877 27.105 89.257 26.935 88.707 26.595C88.167 26.245 87.737 25.745 87.417 25.095C87.107 24.445 86.952 23.685 86.952 22.815C86.952 21.935 87.107 21.175 87.417 20.535C87.737 19.885 88.167 19.39 88.707 19.05C89.257 18.7 89.877 18.525 90.567 18.525ZM91.392 20.775C90.842 20.775 90.397 20.955 90.057 21.315C89.727 21.675 89.562 22.175 89.562 22.815C89.562 23.455 89.727 23.955 90.057 24.315C90.397 24.675 90.842 24.855 91.392 24.855C91.932 24.855 92.372 24.67 92.712 24.3C93.062 23.93 93.237 23.435 93.237 22.815C93.237 22.185 93.062 21.69 92.712 21.33C92.372 20.96 91.932 20.775 91.392 20.775ZM105.878 18.63V27H103.298V25.485C103.058 25.975 102.698 26.365 102.218 26.655C101.748 26.945 101.198 27.09 100.568 27.09C99.608 27.09 98.843 26.77 98.273 26.13C97.713 25.49 97.433 24.61 97.433 23.49V18.63H99.983V23.175C99.983 23.745 100.128 24.19 100.418 24.51C100.718 24.82 101.118 24.975 101.618 24.975C102.138 24.975 102.548 24.81 102.848 24.48C103.148 24.15 103.298 23.68 103.298 23.07V18.63H105.878ZM111.426 18.525C112.506 18.525 113.411 18.825 114.141 19.425C114.871 20.015 115.331 20.83 115.521 21.87H112.806C112.726 21.51 112.561 21.23 112.311 21.03C112.061 20.83 111.746 20.73 111.366 20.73C110.916 20.73 110.546 20.91 110.256 21.27C109.966 21.62 109.821 22.135 109.821 22.815C109.821 23.495 109.966 24.015 110.256 24.375C110.546 24.725 110.916 24.9 111.366 24.9C111.746 24.9 112.061 24.8 112.311 24.6C112.561 24.4 112.726 24.12 112.806 23.76H115.521C115.331 24.8 114.871 25.62 114.141 26.22C113.411 26.81 112.506 27.105 111.426 27.105C110.606 27.105 109.876 26.935 109.236 26.595C108.606 26.245 108.111 25.745 107.751 25.095C107.391 24.445 107.211 23.685 107.211 22.815C107.211 21.935 107.386 21.175 107.736 20.535C108.096 19.885 108.596 19.39 109.236 19.05C109.876 18.7 110.606 18.525 111.426 18.525ZM121.6 24.795V27H120.445C119.465 27 118.7 26.76 118.15 26.28C117.61 25.79 117.34 24.985 117.34 23.865V20.79H116.215V18.63H117.34V16.575H119.905V18.63H121.585V20.79H119.905V23.91C119.905 24.24 119.97 24.47 120.1 24.6C120.24 24.73 120.47 24.795 120.79 24.795H121.6ZM122.801 16.275C122.801 15.885 122.941 15.565 123.221 15.315C123.501 15.055 123.871 14.925 124.331 14.925C124.791 14.925 125.161 15.055 125.441 15.315C125.721 15.565 125.861 15.885 125.861 16.275C125.861 16.655 125.721 16.975 125.441 17.235C125.161 17.485 124.791 17.61 124.331 17.61C123.871 17.61 123.501 17.485 123.221 17.235C122.941 16.975 122.801 16.655 122.801 16.275ZM125.606 18.63V27H123.041V18.63H125.606ZM131.292 18.525C132.122 18.525 132.862 18.7 133.512 19.05C134.172 19.39 134.687 19.885 135.057 20.535C135.437 21.185 135.627 21.945 135.627 22.815C135.627 23.685 135.437 24.445 135.057 25.095C134.687 25.745 134.172 26.245 133.512 26.595C132.862 26.935 132.122 27.105 131.292 27.105C130.462 27.105 129.717 26.935 129.057 26.595C128.397 26.245 127.877 25.745 127.497 25.095C127.127 24.445 126.942 23.685 126.942 22.815C126.942 21.945 127.127 21.185 127.497 20.535C127.877 19.885 128.397 19.39 129.057 19.05C129.717 18.7 130.462 18.525 131.292 18.525ZM131.292 20.745C130.802 20.745 130.387 20.925 130.047 21.285C129.717 21.635 129.552 22.145 129.552 22.815C129.552 23.485 129.717 23.995 130.047 24.345C130.387 24.695 130.802 24.87 131.292 24.87C131.782 24.87 132.192 24.695 132.522 24.345C132.852 23.995 133.017 23.485 133.017 22.815C133.017 22.145 132.852 21.635 132.522 21.285C132.192 20.925 131.782 20.745 131.292 20.745ZM142.267 18.54C143.227 18.54 143.987 18.86 144.547 19.5C145.117 20.14 145.402 21.02 145.402 22.14V27H142.837V22.44C142.837 21.88 142.687 21.445 142.387 21.135C142.097 20.815 141.707 20.655 141.217 20.655C140.697 20.655 140.282 20.82 139.972 21.15C139.672 21.48 139.522 21.95 139.522 22.56V27H136.957V18.63H139.522V20.16C139.762 19.66 140.117 19.265 140.587 18.975C141.067 18.685 141.627 18.54 142.267 18.54Z" fill="#F9F9FF"/>
<path d="M16.2899 19.2225H4.67897L15.8638 15.6792C16.2188 15.5684 16.4319 15.1624 16.3254 14.7564L15.3667 11.5084C15.2601 11.1393 14.8696 10.9179 14.479 11.0286L0.48911 15.4577C0.134037 15.5684 -0.0790065 15.9745 0.0275154 16.3805L0.986212 19.6285L1.02172 19.7023C0.986212 19.7761 0.950705 19.8868 0.950705 19.9607V29.2618C0.950705 29.6678 1.27027 30 1.66085 30H16.2899C16.6804 30 17 29.6678 17 29.2618V19.9607C17 19.5547 16.6804 19.2225 16.2899 19.2225ZM13.2007 12.9479L14.2304 12.6157L14.7985 14.4612L12.7391 15.1255L13.2007 12.9479ZM10.1116 13.9444L12.2775 13.2432L11.8159 15.4208L9.61448 16.1221L10.1116 13.9444ZM7.02245 14.941L9.1884 14.2397L8.69129 16.4174L6.52535 17.1186L7.02245 14.941ZM2.47752 18.4105L2.12245 18.5212L1.58984 16.6757L2.97462 16.2328L2.47752 18.4105ZM3.89781 15.9006L6.06375 15.1994L5.56665 17.377L3.40071 18.0783L3.89781 15.9006ZM13.3427 26.4198H4.64346C4.39491 26.4198 4.21738 26.2352 4.21738 25.9769C4.21738 25.7185 4.39491 25.534 4.64346 25.534H13.3072C13.5558 25.534 13.7333 25.7185 13.7333 25.9769C13.7333 26.2352 13.5558 26.4198 13.3427 26.4198ZM13.3427 23.6147H4.64346C4.39491 23.6147 4.21738 23.4301 4.21738 23.1718C4.21738 22.9134 4.39491 22.7289 4.64346 22.7289H13.3072C13.5558 22.7289 13.7333 22.9134 13.7333 23.1718C13.7333 23.4301 13.5558 23.6147 13.3427 23.6147Z" fill="#F9F9FF"/>
</svg>
