<svg width="175" height="28" viewBox="0 0 175 28" fill="none" xmlns="http://www.w3.org/2000/svg">
<path d="M27.7706 19V8.81818H31.9766C32.7389 8.81818 33.3968 8.96733 33.9503 9.26562C34.5071 9.56061 34.9363 9.97325 35.2379 10.5036C35.5395 11.0305 35.6903 11.6437 35.6903 12.343C35.6903 13.0457 35.5362 13.6605 35.228 14.1875C34.9231 14.7112 34.4872 15.1172 33.9205 15.4055C33.3537 15.6939 32.6809 15.8381 31.902 15.8381H29.3068V13.8991H31.4446C31.8158 13.8991 32.1257 13.8345 32.3743 13.7053C32.6262 13.576 32.8168 13.3954 32.946 13.1634C33.0753 12.928 33.1399 12.6546 33.1399 12.343C33.1399 12.0282 33.0753 11.7564 32.946 11.5277C32.8168 11.2957 32.6262 11.1167 32.3743 10.9908C32.1224 10.8648 31.8125 10.8018 31.4446 10.8018H30.2315V19H27.7706ZM38.3034 19V8.81818H42.5094C43.2717 8.81818 43.9296 8.95573 44.4831 9.23082C45.0399 9.5026 45.4691 9.8937 45.7707 10.4041C46.0723 10.9112 46.2232 11.5128 46.2232 12.2088C46.2232 12.9148 46.069 13.5147 45.7608 14.0085C45.4526 14.4991 45.0151 14.8736 44.4483 15.1321C43.8815 15.3873 43.2104 15.5149 42.4348 15.5149H39.775V13.576H41.9774C42.3486 13.576 42.6585 13.5279 42.9071 13.4318C43.159 13.3324 43.3496 13.1832 43.4788 12.9844C43.6081 12.7822 43.6727 12.5237 43.6727 12.2088C43.6727 11.8939 43.6081 11.6338 43.4788 11.4283C43.3496 11.2195 43.159 11.0637 42.9071 10.9609C42.6552 10.8549 42.3453 10.8018 41.9774 10.8018H40.7643V19H38.3034ZM44.0357 14.3466L46.5712 19H43.8865L41.4007 14.3466H44.0357ZM48.9729 19V8.81818H56.0724V10.8168H51.4339V12.9048H55.7094V14.9084H51.4339V17.0014H56.0724V19H48.9729ZM63.9006 12.9744V14.8438H59.1876V12.9744H63.9006ZM67.0171 19V8.81818H71.223C71.9854 8.81818 72.6433 8.96733 73.1968 9.26562C73.7536 9.56061 74.1828 9.97325 74.4844 10.5036C74.786 11.0305 74.9368 11.6437 74.9368 12.343C74.9368 13.0457 74.7827 13.6605 74.4745 14.1875C74.1695 14.7112 73.7337 15.1172 73.1669 15.4055C72.6002 15.6939 71.9274 15.8381 71.1485 15.8381H68.5533V13.8991H70.6911C71.0623 13.8991 71.3722 13.8345 71.6208 13.7053C71.8727 13.576 72.0632 13.3954 72.1925 13.1634C72.3218 12.928 72.3864 12.6546 72.3864 12.343C72.3864 12.0282 72.3218 11.7564 72.1925 11.5277C72.0632 11.2957 71.8727 11.1167 71.6208 10.9908C71.3689 10.8648 71.059 10.8018 70.6911 10.8018H69.478V19H67.0171ZM77.5499 19V8.81818H81.7559C82.5182 8.81818 83.1761 8.95573 83.7296 9.23082C84.2864 9.5026 84.7156 9.8937 85.0172 10.4041C85.3188 10.9112 85.4696 11.5128 85.4696 12.2088C85.4696 12.9148 85.3155 13.5147 85.0073 14.0085C84.699 14.4991 84.2615 14.8736 83.6948 15.1321C83.128 15.3873 82.4569 15.5149 81.6813 15.5149H79.0215V13.576H81.2239C81.5951 13.576 81.905 13.5279 82.1536 13.4318C82.4055 13.3324 82.5961 13.1832 82.7253 12.9844C82.8546 12.7822 82.9192 12.5237 82.9192 12.2088C82.9192 11.8939 82.8546 11.6338 82.7253 11.4283C82.5961 11.2195 82.4055 11.0637 82.1536 10.9609C81.9017 10.8549 81.5918 10.8018 81.2239 10.8018H80.0108V19H77.5499ZM83.2821 14.3466L85.8176 19H83.133L80.6472 14.3466H83.2821ZM97.8295 13.9091C97.8295 15.0294 97.6141 15.9789 97.1832 16.7578C96.7523 17.5367 96.169 18.1283 95.4332 18.5327C94.7007 18.937 93.8788 19.1392 92.9673 19.1392C92.0525 19.1392 91.2289 18.9354 90.4964 18.5277C89.7639 18.12 89.1823 17.5284 88.7514 16.7528C88.3238 15.974 88.1101 15.026 88.1101 13.9091C88.1101 12.7888 88.3238 11.8393 88.7514 11.0604C89.1823 10.2815 89.7639 9.68987 90.4964 9.28551C91.2289 8.88115 92.0525 8.67898 92.9673 8.67898C93.8788 8.67898 94.7007 8.88115 95.4332 9.28551C96.169 9.68987 96.7523 10.2815 97.1832 11.0604C97.6141 11.8393 97.8295 12.7888 97.8295 13.9091ZM95.3139 13.9091C95.3139 13.2462 95.2194 12.6861 95.0305 12.2287C94.8449 11.7713 94.5764 11.425 94.2251 11.1896C93.8771 10.9543 93.4578 10.8366 92.9673 10.8366C92.4801 10.8366 92.0608 10.9543 91.7095 11.1896C91.3582 11.425 91.088 11.7713 90.8991 12.2287C90.7135 12.6861 90.6207 13.2462 90.6207 13.9091C90.6207 14.572 90.7135 15.1321 90.8991 15.5895C91.088 16.0469 91.3582 16.3932 91.7095 16.6286C92.0608 16.8639 92.4801 16.9815 92.9673 16.9815C93.4578 16.9815 93.8771 16.8639 94.2251 16.6286C94.5764 16.3932 94.8449 16.0469 95.0305 15.5895C95.2194 15.1321 95.3139 14.572 95.3139 13.9091ZM104.43 19H100.666V8.81818H104.425C105.462 8.81818 106.355 9.02202 107.105 9.42969C107.857 9.83404 108.437 10.4174 108.845 11.1797C109.252 11.9387 109.456 12.8468 109.456 13.9041C109.456 14.9647 109.252 15.8762 108.845 16.6385C108.44 17.4008 107.862 17.9858 107.109 18.3935C106.357 18.7978 105.464 19 104.43 19ZM103.127 16.902H104.335C104.905 16.902 105.388 16.8059 105.782 16.6136C106.18 16.4181 106.48 16.1016 106.682 15.6641C106.887 15.2232 106.99 14.6366 106.99 13.9041C106.99 13.1716 106.887 12.5883 106.682 12.1541C106.476 11.7166 106.173 11.4018 105.772 11.2095C105.374 11.014 104.884 10.9162 104.301 10.9162H103.127V16.902ZM118.453 8.81818H120.909V15.3857C120.909 16.1446 120.728 16.8059 120.367 17.3693C120.005 17.9295 119.502 18.3636 118.855 18.6719C118.209 18.9768 117.458 19.1293 116.603 19.1293C115.738 19.1293 114.982 18.9768 114.336 18.6719C113.69 18.3636 113.188 17.9295 112.83 17.3693C112.472 16.8059 112.293 16.1446 112.293 15.3857V8.81818H114.754V15.1719C114.754 15.5232 114.83 15.8364 114.982 16.1115C115.138 16.3866 115.355 16.602 115.634 16.7578C115.912 16.9136 116.235 16.9915 116.603 16.9915C116.971 16.9915 117.293 16.9136 117.568 16.7578C117.846 16.602 118.063 16.3866 118.219 16.1115C118.375 15.8364 118.453 15.5232 118.453 15.1719V8.81818ZM133.093 12.5071H130.607C130.574 12.2519 130.506 12.0215 130.404 11.8161C130.301 11.6106 130.165 11.4349 129.996 11.2891C129.827 11.1432 129.626 11.0322 129.394 10.956C129.166 10.8764 128.912 10.8366 128.634 10.8366C128.14 10.8366 127.714 10.9576 127.356 11.1996C127.001 11.4415 126.728 11.7912 126.536 12.2486C126.347 12.706 126.252 13.2595 126.252 13.9091C126.252 14.5852 126.348 15.152 126.541 15.6094C126.736 16.0634 127.01 16.4065 127.361 16.6385C127.716 16.8672 128.135 16.9815 128.619 16.9815C128.891 16.9815 129.138 16.9467 129.36 16.8771C129.585 16.8075 129.782 16.7064 129.951 16.5739C130.124 16.438 130.264 16.2739 130.374 16.0817C130.486 15.8861 130.564 15.6657 130.607 15.4205L133.093 15.4354C133.05 15.8861 132.919 16.3303 132.7 16.7678C132.485 17.2053 132.188 17.6046 131.811 17.9659C131.433 18.3239 130.972 18.6089 130.428 18.821C129.888 19.0331 129.268 19.1392 128.569 19.1392C127.648 19.1392 126.822 18.937 126.093 18.5327C125.367 18.125 124.794 17.5317 124.373 16.7528C123.952 15.974 123.742 15.026 123.742 13.9091C123.742 12.7888 123.955 11.8393 124.383 11.0604C124.811 10.2815 125.389 9.68987 126.118 9.28551C126.847 8.88115 127.664 8.67898 128.569 8.67898C129.186 8.67898 129.756 8.76515 130.279 8.9375C130.803 9.10653 131.264 9.35511 131.661 9.68324C132.059 10.008 132.382 10.4074 132.631 10.8814C132.879 11.3554 133.034 11.8973 133.093 12.5071ZM135.568 10.8168V8.81818H144.174V10.8168H141.087V19H138.661V10.8168H135.568ZM149.237 8.81818V19H146.776V8.81818H149.237ZM161.792 13.9091C161.792 15.0294 161.577 15.9789 161.146 16.7578C160.715 17.5367 160.132 18.1283 159.396 18.5327C158.663 18.937 157.841 19.1392 156.93 19.1392C156.015 19.1392 155.191 18.9354 154.459 18.5277C153.726 18.12 153.145 17.5284 152.714 16.7528C152.286 15.974 152.073 15.026 152.073 13.9091C152.073 12.7888 152.286 11.8393 152.714 11.0604C153.145 10.2815 153.726 9.68987 154.459 9.28551C155.191 8.88115 156.015 8.67898 156.93 8.67898C157.841 8.67898 158.663 8.88115 159.396 9.28551C160.132 9.68987 160.715 10.2815 161.146 11.0604C161.577 11.8393 161.792 12.7888 161.792 13.9091ZM159.276 13.9091C159.276 13.2462 159.182 12.6861 158.993 12.2287C158.807 11.7713 158.539 11.425 158.188 11.1896C157.84 10.9543 157.42 10.8366 156.93 10.8366C156.443 10.8366 156.023 10.9543 155.672 11.1896C155.321 11.425 155.051 11.7713 154.862 12.2287C154.676 12.6861 154.583 13.2462 154.583 13.9091C154.583 14.572 154.676 15.1321 154.862 15.5895C155.051 16.0469 155.321 16.3932 155.672 16.6286C156.023 16.8639 156.443 16.9815 156.93 16.9815C157.42 16.9815 157.84 16.8639 158.188 16.6286C158.539 16.3932 158.807 16.0469 158.993 15.5895C159.182 15.1321 159.276 14.572 159.276 13.9091ZM173.294 8.81818V19H171.206L167.154 13.1236H167.09V19H164.629V8.81818H166.747L170.754 14.6847H170.838V8.81818H173.294Z" fill="#195244"/>
<path d="M16.2899 11.2225H4.67897L15.8638 7.67918C16.2188 7.56845 16.4319 7.16245 16.3254 6.75644L15.3667 3.50842C15.2601 3.13933 14.8696 2.91787 14.479 3.0286L0.48911 7.45772C0.134037 7.56845 -0.0790065 7.97445 0.0275154 8.38046L0.986212 11.6285L1.02172 11.7023C0.986212 11.7761 0.950705 11.8868 0.950705 11.9607V21.2618C0.950705 21.6678 1.27027 22 1.66085 22H16.2899C16.6804 22 17 21.6678 17 21.2618V11.9607C17 11.5547 16.6804 11.2225 16.2899 11.2225ZM13.2007 4.94789L14.2304 4.6157L14.7985 6.46117L12.7391 7.12554L13.2007 4.94789ZM10.1116 5.94444L12.2775 5.24316L11.8159 7.42081L9.61448 8.12209L10.1116 5.94444ZM7.02245 6.94099L9.1884 6.23971L8.69129 8.41736L6.52535 9.11864L7.02245 6.94099ZM2.47752 10.4105L2.12245 10.5212L1.58984 8.67573L2.97462 8.23282L2.47752 10.4105ZM3.89781 7.90063L6.06375 7.19936L5.56665 9.37701L3.40071 10.0783L3.89781 7.90063ZM13.3427 18.4198H4.64346C4.39491 18.4198 4.21738 18.2352 4.21738 17.9769C4.21738 17.7185 4.39491 17.534 4.64346 17.534H13.3072C13.5558 17.534 13.7333 17.7185 13.7333 17.9769C13.7333 18.2352 13.5558 18.4198 13.3427 18.4198ZM13.3427 15.6147H4.64346C4.39491 15.6147 4.21738 15.4301 4.21738 15.1718C4.21738 14.9134 4.39491 14.7289 4.64346 14.7289H13.3072C13.5558 14.7289 13.7333 14.9134 13.7333 15.1718C13.7333 15.4301 13.5558 15.6147 13.3427 15.6147Z" fill="#356454"/>
</svg>
