<svg width="113" height="40" viewBox="0 0 113 40" fill="none" xmlns="http://www.w3.org/2000/svg">
<path d="M30.45 23.28V27H27.885V16.395H32.04C33.3 16.395 34.26 16.71 34.92 17.34C35.58 17.96 35.91 18.8 35.91 19.86C35.91 20.52 35.76 21.11 35.46 21.63C35.17 22.14 34.735 22.545 34.155 22.845C33.575 23.135 32.87 23.28 32.04 23.28H30.45ZM31.755 21.225C32.785 21.225 33.3 20.77 33.3 19.86C33.3 18.93 32.785 18.465 31.755 18.465H30.45V21.225H31.755ZM39.7371 20.205C40.0571 19.695 40.4671 19.29 40.9671 18.99C41.4771 18.69 42.0271 18.54 42.6171 18.54V21.285H41.8821C41.2021 21.285 40.6721 21.43 40.2921 21.72C39.9221 22.01 39.7371 22.5 39.7371 23.19V27H37.1721V18.63H39.7371V20.205ZM47.6057 18.525C48.4357 18.525 49.1757 18.7 49.8257 19.05C50.4857 19.39 51.0007 19.885 51.3707 20.535C51.7507 21.185 51.9407 21.945 51.9407 22.815C51.9407 23.685 51.7507 24.445 51.3707 25.095C51.0007 25.745 50.4857 26.245 49.8257 26.595C49.1757 26.935 48.4357 27.105 47.6057 27.105C46.7757 27.105 46.0307 26.935 45.3707 26.595C44.7107 26.245 44.1907 25.745 43.8107 25.095C43.4407 24.445 43.2557 23.685 43.2557 22.815C43.2557 21.945 43.4407 21.185 43.8107 20.535C44.1907 19.885 44.7107 19.39 45.3707 19.05C46.0307 18.7 46.7757 18.525 47.6057 18.525ZM47.6057 20.745C47.1157 20.745 46.7007 20.925 46.3607 21.285C46.0307 21.635 45.8657 22.145 45.8657 22.815C45.8657 23.485 46.0307 23.995 46.3607 24.345C46.7007 24.695 47.1157 24.87 47.6057 24.87C48.0957 24.87 48.5057 24.695 48.8357 24.345C49.1657 23.995 49.3307 23.485 49.3307 22.815C49.3307 22.145 49.1657 21.635 48.8357 21.285C48.5057 20.925 48.0957 20.745 47.6057 20.745ZM56.4507 18.525C57.0907 18.525 57.6407 18.67 58.1007 18.96C58.5607 19.25 58.8957 19.645 59.1057 20.145V15.9H61.6707V27H59.1057V25.485C58.8957 25.985 58.5607 26.38 58.1007 26.67C57.6407 26.96 57.0907 27.105 56.4507 27.105C55.7607 27.105 55.1407 26.935 54.5907 26.595C54.0507 26.245 53.6207 25.745 53.3007 25.095C52.9907 24.445 52.8357 23.685 52.8357 22.815C52.8357 21.935 52.9907 21.175 53.3007 20.535C53.6207 19.885 54.0507 19.39 54.5907 19.05C55.1407 18.7 55.7607 18.525 56.4507 18.525ZM57.2757 20.775C56.7257 20.775 56.2807 20.955 55.9407 21.315C55.6107 21.675 55.4457 22.175 55.4457 22.815C55.4457 23.455 55.6107 23.955 55.9407 24.315C56.2807 24.675 56.7257 24.855 57.2757 24.855C57.8157 24.855 58.2557 24.67 58.5957 24.3C58.9457 23.93 59.1207 23.435 59.1207 22.815C59.1207 22.185 58.9457 21.69 58.5957 21.33C58.2557 20.96 57.8157 20.775 57.2757 20.775ZM71.7618 18.63V27H69.1818V25.485C68.9418 25.975 68.5818 26.365 68.1018 26.655C67.6318 26.945 67.0818 27.09 66.4518 27.09C65.4918 27.09 64.7268 26.77 64.1568 26.13C63.5968 25.49 63.3168 24.61 63.3168 23.49V18.63H65.8668V23.175C65.8668 23.745 66.0118 24.19 66.3018 24.51C66.6018 24.82 67.0018 24.975 67.5018 24.975C68.0218 24.975 68.4318 24.81 68.7318 24.48C69.0318 24.15 69.1818 23.68 69.1818 23.07V18.63H71.7618ZM77.3095 18.525C78.3895 18.525 79.2945 18.825 80.0245 19.425C80.7545 20.015 81.2145 20.83 81.4045 21.87H78.6895C78.6095 21.51 78.4445 21.23 78.1945 21.03C77.9445 20.83 77.6295 20.73 77.2495 20.73C76.7995 20.73 76.4295 20.91 76.1395 21.27C75.8495 21.62 75.7045 22.135 75.7045 22.815C75.7045 23.495 75.8495 24.015 76.1395 24.375C76.4295 24.725 76.7995 24.9 77.2495 24.9C77.6295 24.9 77.9445 24.8 78.1945 24.6C78.4445 24.4 78.6095 24.12 78.6895 23.76H81.4045C81.2145 24.8 80.7545 25.62 80.0245 26.22C79.2945 26.81 78.3895 27.105 77.3095 27.105C76.4895 27.105 75.7595 26.935 75.1195 26.595C74.4895 26.245 73.9945 25.745 73.6345 25.095C73.2745 24.445 73.0945 23.685 73.0945 22.815C73.0945 21.935 73.2695 21.175 73.6195 20.535C73.9795 19.885 74.4795 19.39 75.1195 19.05C75.7595 18.7 76.4895 18.525 77.3095 18.525ZM87.4834 24.795V27H86.3284C85.3484 27 84.5834 26.76 84.0334 26.28C83.4934 25.79 83.2234 24.985 83.2234 23.865V20.79H82.0984V18.63H83.2234V16.575H85.7884V18.63H87.4684V20.79H85.7884V23.91C85.7884 24.24 85.8534 24.47 85.9834 24.6C86.1234 24.73 86.3534 24.795 86.6734 24.795H87.4834ZM88.685 16.275C88.685 15.885 88.825 15.565 89.105 15.315C89.385 15.055 89.755 14.925 90.215 14.925C90.675 14.925 91.045 15.055 91.325 15.315C91.605 15.565 91.745 15.885 91.745 16.275C91.745 16.655 91.605 16.975 91.325 17.235C91.045 17.485 90.675 17.61 90.215 17.61C89.755 17.61 89.385 17.485 89.105 17.235C88.825 16.975 88.685 16.655 88.685 16.275ZM91.49 18.63V27H88.925V18.63H91.49ZM97.176 18.525C98.006 18.525 98.746 18.7 99.396 19.05C100.056 19.39 100.571 19.885 100.941 20.535C101.321 21.185 101.511 21.945 101.511 22.815C101.511 23.685 101.321 24.445 100.941 25.095C100.571 25.745 100.056 26.245 99.396 26.595C98.746 26.935 98.006 27.105 97.176 27.105C96.346 27.105 95.601 26.935 94.941 26.595C94.281 26.245 93.761 25.745 93.381 25.095C93.011 24.445 92.826 23.685 92.826 22.815C92.826 21.945 93.011 21.185 93.381 20.535C93.761 19.885 94.281 19.39 94.941 19.05C95.601 18.7 96.346 18.525 97.176 18.525ZM97.176 20.745C96.686 20.745 96.271 20.925 95.931 21.285C95.601 21.635 95.436 22.145 95.436 22.815C95.436 23.485 95.601 23.995 95.931 24.345C96.271 24.695 96.686 24.87 97.176 24.87C97.666 24.87 98.076 24.695 98.406 24.345C98.736 23.995 98.901 23.485 98.901 22.815C98.901 22.145 98.736 21.635 98.406 21.285C98.076 20.925 97.666 20.745 97.176 20.745ZM108.151 18.54C109.111 18.54 109.871 18.86 110.431 19.5C111.001 20.14 111.286 21.02 111.286 22.14V27H108.721V22.44C108.721 21.88 108.571 21.445 108.271 21.135C107.981 20.815 107.591 20.655 107.101 20.655C106.581 20.655 106.166 20.82 105.856 21.15C105.556 21.48 105.406 21.95 105.406 22.56V27H102.841V18.63H105.406V20.16C105.646 19.66 106.001 19.265 106.471 18.975C106.951 18.685 107.511 18.54 108.151 18.54Z" fill="#F9F9FF"/>
<path d="M17.0775 15.9679C16.498 15.3802 15.6799 15 14.7937 15H3.23825C2.35199 15 1.53391 15.3802 0.954432 15.9679C0.374955 16.5901 0 17.4198 0 18.3185V25.716C0 26.6148 0.374955 27.4444 0.954432 28.0321C1.53391 28.6198 2.35199 29 3.23825 29H14.7596C15.6459 29 16.4639 28.6198 17.0434 28.0321C17.6229 27.4444 17.9979 26.6148 17.9979 25.716V18.3185C18.0319 17.4198 17.657 16.5901 17.0775 15.9679ZM12.2713 22.1901C12.2372 22.2593 12.2031 22.2938 12.1349 22.3284L9.68066 23.7457L7.22641 25.1975C7.05598 25.3012 6.85146 25.2321 6.7492 25.0593C6.71511 24.9901 6.71511 24.921 6.71511 24.8864V19.1481C6.71511 18.9407 6.85146 18.8025 7.05598 18.8025C7.12415 18.8025 7.19232 18.8025 7.2605 18.8716L9.68066 20.2889H9.71475L12.169 21.7062C12.3054 21.8099 12.3735 22.0173 12.2713 22.1901Z" fill="#F9F9FF"/>
</svg>
