<svg width="136" height="28" viewBox="0 0 136 28" fill="none" xmlns="http://www.w3.org/2000/svg">
<path d="M28.7706 19V8.81818H32.9766C33.7389 8.81818 34.3968 8.96733 34.9503 9.26562C35.5071 9.56061 35.9363 9.97325 36.2379 10.5036C36.5395 11.0305 36.6903 11.6437 36.6903 12.343C36.6903 13.0457 36.5362 13.6605 36.228 14.1875C35.9231 14.7112 35.4872 15.1172 34.9205 15.4055C34.3537 15.6939 33.6809 15.8381 32.902 15.8381H30.3068V13.8991H32.4446C32.8158 13.8991 33.1257 13.8345 33.3743 13.7053C33.6262 13.576 33.8168 13.3954 33.946 13.1634C34.0753 12.928 34.1399 12.6546 34.1399 12.343C34.1399 12.0282 34.0753 11.7564 33.946 11.5277C33.8168 11.2957 33.6262 11.1167 33.3743 10.9908C33.1224 10.8648 32.8125 10.8018 32.4446 10.8018H31.2315V19H28.7706ZM39.3034 19V8.81818H43.5094C44.2717 8.81818 44.9296 8.95573 45.4831 9.23082C46.0399 9.5026 46.4691 9.8937 46.7707 10.4041C47.0723 10.9112 47.2232 11.5128 47.2232 12.2088C47.2232 12.9148 47.069 13.5147 46.7608 14.0085C46.4526 14.4991 46.0151 14.8736 45.4483 15.1321C44.8815 15.3873 44.2104 15.5149 43.4348 15.5149H40.775V13.576H42.9774C43.3486 13.576 43.6585 13.5279 43.9071 13.4318C44.159 13.3324 44.3496 13.1832 44.4788 12.9844C44.6081 12.7822 44.6727 12.5237 44.6727 12.2088C44.6727 11.8939 44.6081 11.6338 44.4788 11.4283C44.3496 11.2195 44.159 11.0637 43.9071 10.9609C43.6552 10.8549 43.3453 10.8018 42.9774 10.8018H41.7643V19H39.3034ZM45.0357 14.3466L47.5712 19H44.8865L42.4007 14.3466H45.0357ZM59.583 13.9091C59.583 15.0294 59.3676 15.9789 58.9367 16.7578C58.5058 17.5367 57.9225 18.1283 57.1867 18.5327C56.4542 18.937 55.6323 19.1392 54.7208 19.1392C53.806 19.1392 52.9824 18.9354 52.2499 18.5277C51.5174 18.12 50.9358 17.5284 50.5049 16.7528C50.0773 15.974 49.8636 15.026 49.8636 13.9091C49.8636 12.7888 50.0773 11.8393 50.5049 11.0604C50.9358 10.2815 51.5174 9.68987 52.2499 9.28551C52.9824 8.88115 53.806 8.67898 54.7208 8.67898C55.6323 8.67898 56.4542 8.88115 57.1867 9.28551C57.9225 9.68987 58.5058 10.2815 58.9367 11.0604C59.3676 11.8393 59.583 12.7888 59.583 13.9091ZM57.0674 13.9091C57.0674 13.2462 56.9729 12.6861 56.784 12.2287C56.5984 11.7713 56.3299 11.425 55.9786 11.1896C55.6306 10.9543 55.2113 10.8366 54.7208 10.8366C54.2336 10.8366 53.8143 10.9543 53.463 11.1896C53.1117 11.425 52.8415 11.7713 52.6526 12.2287C52.467 12.6861 52.3742 13.2462 52.3742 13.9091C52.3742 14.572 52.467 15.1321 52.6526 15.5895C52.8415 16.0469 53.1117 16.3932 53.463 16.6286C53.8143 16.8639 54.2336 16.9815 54.7208 16.9815C55.2113 16.9815 55.6306 16.8639 55.9786 16.6286C56.3299 16.3932 56.5984 16.0469 56.784 15.5895C56.9729 15.1321 57.0674 14.572 57.0674 13.9091ZM66.1833 19H62.4198V8.81818H66.1783C67.2157 8.81818 68.109 9.02202 68.858 9.42969C69.6104 9.83404 70.1904 10.4174 70.5981 11.1797C71.0058 11.9387 71.2096 12.8468 71.2096 13.9041C71.2096 14.9647 71.0058 15.8762 70.5981 16.6385C70.1937 17.4008 69.6154 17.9858 68.863 18.3935C68.1106 18.7978 67.2174 19 66.1833 19ZM64.8808 16.902H66.0889C66.6589 16.902 67.1412 16.8059 67.5356 16.6136C67.9333 16.4181 68.2333 16.1016 68.4354 15.6641C68.6409 15.2232 68.7437 14.6366 68.7437 13.9041C68.7437 13.1716 68.6409 12.5883 68.4354 12.1541C68.2299 11.7166 67.9267 11.4018 67.5256 11.2095C67.1279 11.014 66.6374 10.9162 66.054 10.9162H64.8808V16.902ZM80.2062 8.81818H82.6621V15.3857C82.6621 16.1446 82.4815 16.8059 82.1202 17.3693C81.759 17.9295 81.2552 18.3636 80.6089 18.6719C79.9626 18.9768 79.2119 19.1293 78.3567 19.1293C77.4917 19.1293 76.736 18.9768 76.0897 18.6719C75.4434 18.3636 74.9413 17.9295 74.5833 17.3693C74.2254 16.8059 74.0464 16.1446 74.0464 15.3857V8.81818H76.5073V15.1719C76.5073 15.5232 76.5835 15.8364 76.736 16.1115C76.8918 16.3866 77.1089 16.602 77.3873 16.7578C77.6657 16.9136 77.9888 16.9915 78.3567 16.9915C78.7246 16.9915 79.0461 16.9136 79.3212 16.7578C79.5996 16.602 79.8167 16.3866 79.9725 16.1115C80.1283 15.8364 80.2062 15.5232 80.2062 15.1719V8.81818ZM94.8468 12.5071H92.361C92.3278 12.2519 92.2599 12.0215 92.1571 11.8161C92.0544 11.6106 91.9185 11.4349 91.7495 11.2891C91.5804 11.1432 91.3799 11.0322 91.1479 10.956C90.9192 10.8764 90.6657 10.8366 90.3873 10.8366C89.8934 10.8366 89.4675 10.9576 89.1096 11.1996C88.7549 11.4415 88.4815 11.7912 88.2892 12.2486C88.1003 12.706 88.0059 13.2595 88.0059 13.9091C88.0059 14.5852 88.102 15.152 88.2942 15.6094C88.4898 16.0634 88.7632 16.4065 89.1145 16.6385C89.4692 16.8672 89.8884 16.9815 90.3723 16.9815C90.6441 16.9815 90.891 16.9467 91.1131 16.8771C91.3385 16.8075 91.5357 16.7064 91.7047 16.5739C91.8771 16.438 92.0179 16.2739 92.1273 16.0817C92.24 15.8861 92.3179 15.6657 92.361 15.4205L94.8468 15.4354C94.8037 15.8861 94.6728 16.3303 94.454 16.7678C94.2386 17.2053 93.9419 17.6046 93.5641 17.9659C93.1863 18.3239 92.7256 18.6089 92.182 18.821C91.6417 19.0331 91.022 19.1392 90.3226 19.1392C89.4012 19.1392 88.5759 18.937 87.8468 18.5327C87.1209 18.125 86.5475 17.5317 86.1266 16.7528C85.7057 15.974 85.4952 15.026 85.4952 13.9091C85.4952 12.7888 85.709 11.8393 86.1365 11.0604C86.5641 10.2815 87.1425 9.68987 87.8716 9.28551C88.6008 8.88115 89.4178 8.67898 90.3226 8.67898C90.9391 8.67898 91.5092 8.76515 92.0328 8.9375C92.5565 9.10653 93.0172 9.35511 93.415 9.68324C93.8127 10.008 94.1358 10.4074 94.3844 10.8814C94.633 11.3554 94.7871 11.8973 94.8468 12.5071ZM97.3219 10.8168V8.81818H105.928V10.8168H102.84V19H100.414V10.8168H97.3219ZM110.991 8.81818V19H108.53V8.81818H110.991ZM123.546 13.9091C123.546 15.0294 123.33 15.9789 122.899 16.7578C122.468 17.5367 121.885 18.1283 121.149 18.5327C120.417 18.937 119.595 19.1392 118.683 19.1392C117.769 19.1392 116.945 18.9354 116.212 18.5277C115.48 18.12 114.898 17.5284 114.467 16.7528C114.04 15.974 113.826 15.026 113.826 13.9091C113.826 12.7888 114.04 11.8393 114.467 11.0604C114.898 10.2815 115.48 9.68987 116.212 9.28551C116.945 8.88115 117.769 8.67898 118.683 8.67898C119.595 8.67898 120.417 8.88115 121.149 9.28551C121.885 9.68987 122.468 10.2815 122.899 11.0604C123.33 11.8393 123.546 12.7888 123.546 13.9091ZM121.03 13.9091C121.03 13.2462 120.935 12.6861 120.747 12.2287C120.561 11.7713 120.292 11.425 119.941 11.1896C119.593 10.9543 119.174 10.8366 118.683 10.8366C118.196 10.8366 117.777 10.9543 117.425 11.1896C117.074 11.425 116.804 11.7713 116.615 12.2287C116.43 12.6861 116.337 13.2462 116.337 13.9091C116.337 14.572 116.43 15.1321 116.615 15.5895C116.804 16.0469 117.074 16.3932 117.425 16.6286C117.777 16.8639 118.196 16.9815 118.683 16.9815C119.174 16.9815 119.593 16.8639 119.941 16.6286C120.292 16.3932 120.561 16.0469 120.747 15.5895C120.935 15.1321 121.03 14.572 121.03 13.9091ZM135.048 8.81818V19H132.96L128.908 13.1236H128.843V19H126.382V8.81818H128.5L132.507 14.6847H132.592V8.81818H135.048Z" fill="#F9F9FF"/>
<path d="M17.0775 7.9679C16.498 7.38025 15.6799 7 14.7937 7H3.23825C2.35199 7 1.53391 7.38025 0.954432 7.9679C0.374955 8.59012 0 9.41975 0 10.3185V17.716C0 18.6148 0.374955 19.4444 0.954432 20.0321C1.53391 20.6198 2.35199 21 3.23825 21H14.7596C15.6459 21 16.4639 20.6198 17.0434 20.0321C17.6229 19.4444 17.9979 18.6148 17.9979 17.716V10.3185C18.0319 9.41975 17.657 8.59012 17.0775 7.9679ZM12.2713 14.1901C12.2372 14.2593 12.2031 14.2938 12.1349 14.3284L9.68066 15.7457L7.22641 17.1975C7.05598 17.3012 6.85146 17.2321 6.7492 17.0593C6.71511 16.9901 6.71511 16.921 6.71511 16.8864V11.1481C6.71511 10.9407 6.85146 10.8025 7.05598 10.8025C7.12415 10.8025 7.19232 10.8025 7.2605 10.8716L9.68066 12.2889H9.71475L12.169 13.7062C12.3054 13.8099 12.3735 14.0173 12.2713 14.1901Z" fill="#F9F9FF"/>
</svg>
