<svg version="1.2" xmlns="http://www.w3.org/2000/svg" viewBox="0 0 219 44" width="219" height="44"><style>.a{fill:#f9f9ff}.b{fill:#c05d3e}</style><path class="a" d="m175.3 0c12 0 21.8 9.7 21.8 21.8 0 10.6 7.7 19.7 18.1 21.4l4.8 0.8h-221l4.8-0.8c10.4-1.7 18.1-10.8 18.1-21.4 0-12.1 9.8-21.8 21.8-21.8z"/><path fill-rule="evenodd" class="b" d="m85.4 23.3v3.7h-2.5v-10.6h4.1q1.9 0 2.9 0.9 1 1 1 2.6 0 0.9-0.4 1.7-0.5 0.8-1.3 1.2-0.9 0.5-2.2 0.5zm1.3-2.1q1.6 0 1.6-1.3 0-1.4-1.6-1.4h-1.3v2.7zm8-1q0.5-0.8 1.3-1.2 0.7-0.5 1.6-0.5v2.8h-0.7q-1.1 0-1.6 0.4-0.6 0.5-0.6 1.5v3.8h-2.5v-8.4h2.5zm7.9-1.7q1.2 0 2.2 0.6 1 0.5 1.6 1.5 0.5 0.9 0.5 2.2 0 1.3-0.5 2.3-0.6 1-1.6 1.5-1 0.5-2.2 0.5-1.3 0-2.2-0.5-1-0.5-1.6-1.5-0.6-1-0.6-2.3 0-1.3 0.6-2.2 0.6-1 1.6-1.5 0.9-0.6 2.2-0.6zm0 2.3q-0.7 0-1.3 0.5-0.4 0.5-0.4 1.5 0 1 0.4 1.6 0.6 0.5 1.3 0.5 0.7 0 1.2-0.5 0.5-0.6 0.5-1.6 0-1-0.5-1.5-0.5-0.5-1.2-0.5zm8.8-2.3q1 0 1.7 0.5 0.7 0.4 1 1.2v-4.3h2.6v11.1h-2.6v-1.5q-0.3 0.8-1 1.2-0.7 0.4-1.7 0.4-1 0-1.8-0.5-0.8-0.5-1.3-1.5-0.5-1-0.5-2.3 0-1.3 0.5-2.2 0.5-1 1.3-1.5 0.8-0.6 1.8-0.6zm0.9 2.3q-0.9 0-1.4 0.5-0.5 0.6-0.5 1.5 0 1 0.5 1.5 0.5 0.6 1.4 0.6 0.8 0 1.3-0.6 0.5-0.5 0.5-1.5 0-0.9-0.5-1.4-0.5-0.6-1.3-0.6zm14.4-2.1v8.3h-2.5v-1.5q-0.4 0.7-1.1 1.2-0.7 0.4-1.7 0.4-1.4 0-2.3-0.9-0.8-1-0.8-2.7v-4.8h2.6v4.5q0 0.9 0.4 1.3 0.4 0.5 1.2 0.5 0.8 0 1.2-0.5 0.5-0.5 0.5-1.4v-4.4zm5.5-0.2q1.6 0 2.7 0.9 1.1 0.9 1.4 2.5h-2.7q-0.1-0.5-0.5-0.8-0.4-0.3-0.9-0.3-0.7 0-1.2 0.5-0.4 0.5-0.4 1.5 0 1.1 0.4 1.6 0.5 0.5 1.2 0.5 0.5 0 0.9-0.3 0.4-0.3 0.5-0.8h2.7q-0.3 1.5-1.4 2.4-1.1 0.9-2.7 0.9-1.2 0-2.2-0.5-0.9-0.5-1.5-1.5-0.5-1-0.5-2.3 0-1.3 0.5-2.2 0.6-1 1.5-1.5 1-0.6 2.2-0.6zm10.2 6.3v2.2h-1.2q-1.4 0-2.3-0.7-0.8-0.7-0.8-2.4v-3.1h-1.1v-2.1h1.1v-2.1h2.6v2.1h1.7v2.1h-1.7v3.1q0 0.5 0.2 0.7 0.2 0.2 0.7 0.2zm1.2-8.5q0-0.6 0.4-1 0.4-0.4 1.1-0.4 0.7 0 1.1 0.4 0.4 0.4 0.4 1 0 0.6-0.4 1-0.4 0.3-1.1 0.3-0.7 0-1.1-0.3-0.4-0.4-0.4-1zm2.8 2.4v8.3h-2.6v-8.3zm5.7-0.2q1.3 0 2.2 0.6 1 0.5 1.6 1.5 0.5 0.9 0.5 2.2 0 1.3-0.5 2.3-0.6 1-1.6 1.5-0.9 0.5-2.2 0.5-1.2 0-2.2-0.5-1-0.5-1.6-1.5-0.5-1-0.5-2.3 0-1.3 0.5-2.2 0.6-1 1.6-1.5 1-0.6 2.2-0.6zm0 2.3q-0.7 0-1.2 0.5-0.5 0.5-0.5 1.5 0 1 0.5 1.6 0.5 0.5 1.2 0.5 0.7 0 1.2-0.5 0.5-0.6 0.5-1.6 0-1-0.5-1.5-0.5-0.5-1.2-0.5zm11-2.2q1.4 0 2.3 0.9 0.8 1 0.8 2.7v4.8h-2.5v-4.5q0-0.9-0.5-1.3-0.4-0.5-1.2-0.5-0.7 0-1.2 0.5-0.5 0.5-0.5 1.4v4.4h-2.5v-8.3h2.5v1.5q0.4-0.8 1.1-1.2 0.7-0.4 1.7-0.4z"/><path fill-rule="evenodd" class="b" d="m75 18.3v7.4c0 0.9-0.4 1.7-1 2.3-0.5 0.6-1.4 1-2.2 1h-11.6c-0.8 0-1.7-0.4-2.2-1-0.6-0.6-1-1.4-1-2.3v-7.4c0-0.9 0.4-1.7 1-2.3 0.5-0.6 1.4-1 2.2-1h11.6c0.9 0 1.7 0.4 2.3 1 0.6 0.6 0.9 1.4 0.9 2.3zm-5.8 3.4l-2.5-1.4-2.4-1.4c-0.1-0.1-0.2-0.1-0.2-0.1-0.2 0-0.4 0.1-0.4 0.3v5.8q0 0 0 0.2c0.2 0.1 0.4 0.2 0.5 0.1l2.5-1.5 2.4-1.4q0.1 0 0.2-0.1c0.1-0.2 0-0.4-0.1-0.5z"/></svg>