<svg version="1.2" xmlns="http://www.w3.org/2000/svg" viewBox="0 0 186 14" width="186" height="14"><style>.a{fill:#317396}</style><path fill-rule="evenodd" class="a" d="m26.8 1.6h4.2c2.3 0 3.7 1.5 3.7 3.6 0 2.1-1.5 3.5-3.8 3.4h-1.7v3.2h-2.4zm3.6 5.1c1.1 0 1.7-0.6 1.7-1.6 0-0.9-0.6-1.5-1.7-1.5h-1.2v3.1zm11.6 5.3c-2.7-0.1-4.8-2.4-4.8-5.3 0-2.9 2.1-5.2 4.8-5.2 2.7 0 4.9 2.3 4.9 5.2 0 2.9-2.2 5.3-4.9 5.3zm2.4-5.3c0-1.7-1.1-3-2.4-3.1-1.3 0-2.3 1.4-2.3 3.1 0 1.7 1 3.1 2.3 3.1 1.3 0 2.4-1.4 2.4-3.1zm9.3-3.2c-1 0-1.5 0.4-1.5 1 0 0.6 0.6 0.9 1.5 1.1l0.9 0.2c2 0.5 3.1 1.5 3.1 3.1 0 1.9-1.5 3.1-4 3.1-2.6 0-4.3-1.2-4.3-3.6h2.4c0 1 0.7 1.5 1.8 1.5 1 0 1.6-0.4 1.6-1 0-0.6-0.5-0.9-1.6-1.2l-1.1-0.2c-1.7-0.4-2.8-1.3-2.8-2.8 0-1.9 1.7-3.2 4-3.2 2.4 0 3.9 1.3 3.9 3.2h-2.4c0-0.7-0.6-1.2-1.5-1.2zm6.3-1.8h8.6v2h-3l-0.1 8.2h-2.4v-8.2h-3.1zm11.2 4.1h4.7v1.9h-4.7zm7.8-4.1h4.2c2.3 0 3.8 1.4 3.7 3.5 0 2.1-1.4 3.5-3.7 3.5h-1.7v3.2h-2.5zm3.7 5c1.1 0 1.7-0.6 1.7-1.5 0-1-0.6-1.5-1.7-1.6h-1.2v3.1zm6.8-5h4.2c2.3 0 3.8 1.3 3.7 3.4 0 1.4-0.6 2.4-1.7 2.9l2.1 3.9h-2.7l-1.9-3.5h-1.2v3.5h-2.5zm3.7 4.7c1.1 0 1.7-0.4 1.7-1.3 0-1-0.6-1.4-1.7-1.5h-1.2v2.8zm11.7 5.6c-2.7 0-4.9-2.3-4.8-5.2 0-2.9 2.1-5.3 4.8-5.3 2.7 0.1 4.9 2.4 4.9 5.3 0 2.9-2.2 5.2-4.9 5.2zm2.4-5.2c0-1.7-1.1-3.1-2.4-3.1-1.3 0-2.3 1.4-2.3 3.1 0 1.7 1 3 2.3 3 1.3 0.1 2.4-1.3 2.4-3zm5.3 5.1v-10.2h3.8c3.1 0 5 1.9 5 5.1 0 3.2-1.9 5.1-5 5.1zm3.6-2.1c1.7 0 2.7-0.8 2.7-3 0-2.2-0.9-3-2.7-3h-1.2v6zm16.6-8.1v6.6c0 2.3-1.7 3.8-4.3 3.7-2.6 0-4.3-1.4-4.3-3.7v-6.6h2.5l-0.1 6.4c0 1 0.8 1.8 1.9 1.8 1.1 0 1.8-0.7 1.8-1.8l0.1-6.4zm9.7 3.7c-0.2-1-0.9-1.6-2-1.6-1.5 0-2.4 1.1-2.4 3 0 2.1 0.9 3.1 2.4 3.1 1 0 1.8-0.6 1.9-1.5h2.5c-0.2 1.8-1.7 3.7-4.5 3.7-2.8 0-4.8-1.9-4.8-5.3 0-3.3 2.1-5.2 4.8-5.2 2.5 0 4.3 1.4 4.5 3.9zm5-3.7h8.6v2h-3.1v8.2h-2.4v-8.2h-3.1zm11.2 0h2.5l-0.1 10.2h-2.4zm10.1 10.3c-2.7 0-4.8-2.3-4.8-5.2 0-2.9 2.2-5.2 4.8-5.2 2.7 0 4.9 2.3 4.9 5.2 0 2.9-2.2 5.2-4.9 5.2zm2.4-5.2c0-1.7-1.1-3.1-2.4-3.1-1.3 0-2.3 1.4-2.3 3.1 0 1.7 1 3.1 2.3 3.1 1.3 0 2.4-1.4 2.4-3.1zm14 5.1h-2.1l-4-5.9h-0.1v5.9h-2.5v-10.2h2.2l4 5.9 0.1-5.9h2.4z"/><path fill-rule="evenodd" class="a" d="m15 0.6v12.8c0 0.3-0.3 0.6-0.6 0.6h-13.8c-0.3 0-0.6-0.2-0.6-0.6v-12.8c0-0.3 0.3-0.6 0.6-0.6h13.8c0.3 0 0.6 0.3 0.6 0.6zm-10 9.3c0-0.1-0.1-0.3-0.3-0.3h-2.3c-0.2 0-0.4 0.1-0.4 0.3v1.8c0 0.2 0.2 0.4 0.4 0.4h2.3c0.2 0 0.3-0.2 0.3-0.4zm0-7.6c0-0.2-0.1-0.4-0.3-0.4h-2.3c-0.2 0-0.4 0.2-0.4 0.4v1.7c0 0.2 0.2 0.4 0.4 0.4h2.3c0.2 0 0.3-0.2 0.3-0.4zm4 7.6c0-0.1-0.1-0.3-0.3-0.3h-2.3c-0.2 0-0.4 0.1-0.4 0.3v1.8c0 0.2 0.2 0.4 0.4 0.4h2.3c0.2 0 0.3-0.2 0.3-0.4zm0-7.6c0-0.2-0.1-0.4-0.3-0.4h-2.3c-0.2 0-0.4 0.2-0.4 0.4v1.7c0 0.2 0.2 0.4 0.4 0.4h2.3c0.2 0 0.3-0.1 0.3-0.4zm4 7.7c0-0.2-0.1-0.4-0.3-0.4h-2.4c-0.1 0-0.3 0.2-0.3 0.4v1.7c0 0.2 0.1 0.4 0.3 0.4h2.4c0.1 0 0.3-0.2 0.3-0.4zm0-7.6c0-0.2-0.1-0.3-0.3-0.3h-2.4c-0.1 0-0.3 0.1-0.3 0.3v1.8c0 0.1 0.1 0.3 0.3 0.3h2.4c0.1 0 0.3-0.1 0.3-0.3z"/></svg>