<svg width="178" height="28" viewBox="0 0 178 28" fill="none" xmlns="http://www.w3.org/2000/svg">
<path d="M30.7706 19H33.2315V15.8381H34.902C37.2337 15.8381 38.6903 14.456 38.6903 12.343C38.6903 10.25 37.2635 8.81818 34.9766 8.81818H30.7706V19ZM33.2315 13.8991V10.8018H34.4446C35.5483 10.8018 36.1399 11.3984 36.1399 12.343C36.1399 13.2827 35.5483 13.8991 34.4446 13.8991H33.2315ZM41.3034 19H43.7643V15.5149H45.0271L46.8865 19H49.5712L47.4582 15.1222C48.5768 14.6151 49.2232 13.6158 49.2232 12.2088C49.2232 10.1158 47.7963 8.81818 45.5094 8.81818H41.3034V19ZM43.7643 13.576V10.8018H44.9774C46.0811 10.8018 46.6727 11.2642 46.6727 12.2088C46.6727 13.1534 46.0811 13.576 44.9774 13.576H43.7643ZM51.9729 19H59.0724V17.0014H54.4339V14.9084H58.7094V12.9048H54.4339V10.8168H59.0724V8.81818H51.9729V19ZM66.9006 12.9695H62.1876V14.8438H66.9006V12.9695ZM70.0171 19H72.478V15.8381H74.1485C76.4801 15.8381 77.9368 14.456 77.9368 12.343C77.9368 10.25 76.51 8.81818 74.223 8.81818H70.0171V19ZM72.478 13.8991V10.8018H73.6911C74.7948 10.8018 75.3864 11.3984 75.3864 12.343C75.3864 13.2827 74.7948 13.8991 73.6911 13.8991H72.478ZM80.5499 19H83.0108V15.5149H84.2736L86.133 19H88.8176L86.7047 15.1222C87.8233 14.6151 88.4696 13.6158 88.4696 12.2088C88.4696 10.1158 87.0428 8.81818 84.7559 8.81818H80.5499V19ZM83.0108 13.576V10.8018H84.2239C85.3276 10.8018 85.9192 11.2642 85.9192 12.2088C85.9192 13.1534 85.3276 13.576 84.2239 13.576H83.0108ZM100.83 13.9091C100.83 10.5433 98.7017 8.67898 95.9673 8.67898C93.223 8.67898 91.1101 10.5433 91.1101 13.9091C91.1101 17.2599 93.223 19.1392 95.9673 19.1392C98.7017 19.1392 100.83 17.2749 100.83 13.9091ZM98.3139 13.9091C98.3139 15.9027 97.4389 16.9815 95.9673 16.9815C94.5007 16.9815 93.6207 15.9027 93.6207 13.9091C93.6207 11.9155 94.5007 10.8366 95.9673 10.8366C97.4389 10.8366 98.3139 11.9155 98.3139 13.9091ZM107.43 19C110.532 19 112.456 17.0859 112.456 13.9041C112.456 10.7273 110.532 8.81818 107.425 8.81818H103.666V19H107.43ZM106.127 16.902V10.9162H107.301C109.051 10.9162 109.99 11.7116 109.99 13.9041C109.99 16.1065 109.051 16.902 107.335 16.902H106.127ZM121.453 8.81818V15.1719C121.453 16.2308 120.702 16.9915 119.603 16.9915C118.5 16.9915 117.754 16.2308 117.754 15.1719V8.81818H115.293V15.3857C115.293 17.6626 117.013 19.1293 119.603 19.1293C122.174 19.1293 123.909 17.6626 123.909 15.3857V8.81818H121.453ZM136.093 12.5071C135.845 10.071 134.03 8.67898 131.569 8.67898C128.855 8.67898 126.742 10.5433 126.742 13.9091C126.742 17.2599 128.805 19.1392 131.569 19.1392C134.363 19.1392 135.909 17.2401 136.093 15.4354L133.607 15.4205C133.433 16.3999 132.698 16.9815 131.619 16.9815C130.167 16.9815 129.252 15.9325 129.252 13.9091C129.252 11.9652 130.147 10.8366 131.634 10.8366C132.752 10.8366 133.483 11.4879 133.607 12.5071H136.093ZM138.568 10.8168H141.661V19H144.087V10.8168H147.174V8.81818H138.568V10.8168ZM152.237 8.81818H149.776V19H152.237V8.81818ZM164.792 13.9091C164.792 10.5433 162.664 8.67898 159.93 8.67898C157.185 8.67898 155.073 10.5433 155.073 13.9091C155.073 17.2599 157.185 19.1392 159.93 19.1392C162.664 19.1392 164.792 17.2749 164.792 13.9091ZM162.276 13.9091C162.276 15.9027 161.401 16.9815 159.93 16.9815C158.463 16.9815 157.583 15.9027 157.583 13.9091C157.583 11.9155 158.463 10.8366 159.93 10.8366C161.401 10.8366 162.276 11.9155 162.276 13.9091ZM176.294 8.81818H173.838V14.6847H173.754L169.747 8.81818H167.629V19H170.09V13.1236H170.154L174.206 19H176.294V8.81818Z" fill="#195244"/>
<path d="M16.2899 11.2225H4.67897L15.8638 7.67918C16.2188 7.56845 16.4319 7.16245 16.3254 6.75644L15.3667 3.50842C15.2601 3.13933 14.8696 2.91787 14.479 3.0286L0.48911 7.45772C0.134037 7.56845 -0.0790065 7.97445 0.0275154 8.38046L0.986212 11.6285L1.02172 11.7023C0.986212 11.7761 0.950705 11.8868 0.950705 11.9607V21.2618C0.950705 21.6678 1.27027 22 1.66085 22H16.2899C16.6804 22 17 21.6678 17 21.2618V11.9607C17 11.5547 16.6804 11.2225 16.2899 11.2225ZM13.2007 4.94789L14.2304 4.6157L14.7985 6.46117L12.7391 7.12554L13.2007 4.94789ZM10.1116 5.94444L12.2775 5.24316L11.8159 7.42081L9.61448 8.12209L10.1116 5.94444ZM7.02245 6.94099L9.1884 6.23971L8.69129 8.41736L6.52535 9.11864L7.02245 6.94099ZM2.47752 10.4105L2.12245 10.5212L1.58984 8.67573L2.97462 8.23282L2.47752 10.4105ZM3.89781 7.90063L6.06375 7.19936L5.56665 9.37701L3.40071 10.0783L3.89781 7.90063ZM13.3427 18.4198H4.64346C4.39491 18.4198 4.21738 18.2352 4.21738 17.9769C4.21738 17.7185 4.39491 17.534 4.64346 17.534H13.3072C13.5558 17.534 13.7333 17.7185 13.7333 17.9769C13.7333 18.2352 13.5558 18.4198 13.3427 18.4198ZM13.3427 15.6147H4.64346C4.39491 15.6147 4.21738 15.4301 4.21738 15.1718C4.21738 14.9134 4.39491 14.7289 4.64346 14.7289H13.3072C13.5558 14.7289 13.7333 14.9134 13.7333 15.1718C13.7333 15.4301 13.5558 15.6147 13.3427 15.6147Z" fill="#20735F"/>
</svg>
