<svg version="1.2" xmlns="http://www.w3.org/2000/svg" viewBox="0 0 137 14" width="137" height="14"><style>.a{fill:#c05d3e}</style><path fill-rule="evenodd" class="a" d="m30.8 1.8h4.2c2.3 0 3.7 1.4 3.7 3.5 0 2.2-1.5 3.5-3.8 3.5h-1.7v3.2h-2.4zm3.6 5.1c1.1 0 1.7-0.6 1.7-1.6 0-0.9-0.6-1.5-1.7-1.5h-1.2v3.1zm6.9-5.1h4.2c2.3 0 3.7 1.3 3.7 3.4 0 1.4-0.6 2.4-1.8 2.9l2.2 3.9h-2.7l-1.9-3.5h-1.2v3.5h-2.5zm3.7 4.7c1.1 0 1.7-0.4 1.7-1.3 0-1-0.6-1.4-1.7-1.4h-1.2v2.7zm11.7 5.6c-2.7 0-4.9-1.9-4.9-5.2 0-3.4 2.2-5.3 4.9-5.3 2.7 0 4.9 1.9 4.9 5.3 0 3.3-2.2 5.2-4.9 5.2zm0-8.3c-1.5 0-2.4 1.1-2.4 3.1 0 2 0.9 3 2.4 3 1.5 0 2.3-1 2.3-3 0-2-0.8-3.1-2.3-3.1zm7.7 8.2v-10.2h3.8c3.1 0 5 1.9 5 5.1 0 3.1-1.9 5.1-5 5.1zm3.6-2.1c1.7 0 2.7-0.8 2.7-3 0-2.2-1-3-2.7-3h-1.2v6zm16.6-8.1v6.5c0 2.3-1.7 3.8-4.3 3.8-2.6 0-4.3-1.5-4.3-3.8v-6.5h2.4v6.3c0 1.1 0.8 1.9 1.9 1.9 1.1 0 1.8-0.8 1.8-1.9v-6.3zm9.7 3.7c-0.1-1-0.8-1.7-1.9-1.7-1.5 0-2.4 1.1-2.4 3.1 0 2 0.9 3 2.3 3 1.1 0 1.9-0.5 2-1.5h2.5c-0.2 1.8-1.7 3.7-4.5 3.7-2.8 0-4.8-1.9-4.8-5.2 0-3.4 2.1-5.3 4.8-5.3 2.5 0 4.3 1.4 4.5 3.9zm5-3.7h8.6v2h-3.1v8.2h-2.4v-8.2h-3.1zm13.6 10.2h-2.4v-10.2h2.4zm7.7 0.1c-2.7 0-4.8-1.9-4.8-5.2 0-3.4 2.1-5.2 4.8-5.2 2.8 0 4.9 1.8 4.9 5.2 0 3.4-2.1 5.2-4.9 5.2zm0-8.3c-1.4 0-2.3 1.1-2.3 3.1 0 2 0.9 3.1 2.3 3.1 1.5 0 2.4-1.1 2.4-3.1 0-2-0.9-3.1-2.4-3.1zm16.4 8.2h-2.1l-4-5.9h-0.1v5.9h-2.5v-10.2h2.2l4 5.9h0.1v-5.9h2.4z"/><path fill-rule="evenodd" class="a" d="m18 3.3v7.4c0 0.9-0.4 1.7-1 2.3-0.5 0.6-1.4 1-2.2 1h-11.6c-0.8 0-1.7-0.4-2.2-1-0.6-0.6-1-1.4-1-2.3v-7.4c0-0.9 0.4-1.7 1-2.3 0.5-0.6 1.4-1 2.2-1h11.6c0.9 0 1.7 0.4 2.3 1 0.6 0.6 0.9 1.4 0.9 2.3zm-5.8 3.4l-2.5-1.4-2.4-1.4c-0.1-0.1-0.2-0.1-0.2-0.1-0.2 0-0.4 0.1-0.4 0.3v5.8q0 0 0 0.2c0.2 0.1 0.4 0.2 0.5 0.1l2.5-1.5 2.4-1.4q0.1 0 0.2-0.1c0.1-0.2 0-0.4-0.1-0.5z"/></svg>