<svg version="1.2" xmlns="http://www.w3.org/2000/svg" viewBox="0 0 47 46" width="47" height="46"><style>.a{fill:#fff}.b{fill:#20735f}.c{fill-opacity:1;fill:#20735f}</style><path class="a" d="m0 23c0-9.4 7.6-17 17-17h22.4c3.6 0 6.8-2.5 7.6-6v46c-0.8-3.5-4-6-7.6-6h-22.4c-9.4 0-17-7.6-17-17z"/><path fill-rule="evenodd" class="b" d="m10.4 22.8q-0.2-0.1-0.3-0.4-0.1-0.3-0.1-0.6 0.1-0.3 0.3-0.5l9-9q0.1-0.1 0.3-0.2 0.2-0.1 0.4-0.1 0.2 0 0.4 0.1 0.2 0.1 0.3 0.2l9 9q0.2 0.2 0.3 0.5 0 0.3-0.1 0.6-0.1 0.3-0.3 0.4-0.3 0.2-0.6 0.2h-1v7c0 1.1-0.9 2-2 2h-12c-1.1 0-2-0.9-2-2v-7h-1q-0.3 0-0.6-0.2zm3.6-2.4v9.6h12v-5-4.6l-6-6z"/><path class="c" d="m20 28c3.7 0 4.9-3.5 4.9-3.7l-1.9-0.6c0 0-0.7 2.3-3 2.3-2.2 0-3-2.2-3.1-2.3l-1.9 0.6c0.1 0.2 1.3 3.7 5 3.7z"/></svg>