<svg width="14" height="18" viewBox="0 0 14 18" fill="none" xmlns="http://www.w3.org/2000/svg">
<path d="M13.1998 16.7932V16.7931V3.29309C13.1998 2.70961 12.968 2.15004 12.5554 1.73746C12.1428 1.32488 11.5833 1.09309 10.9998 1.09309H2.99979C2.41631 1.09309 1.85673 1.32488 1.44415 1.73746C1.03157 2.15004 0.799786 2.70961 0.799786 3.29309L0.799786 16.7931L0.799786 16.7932C0.799852 16.9198 0.83426 17.044 0.899346 17.1527C0.964432 17.2613 1.05776 17.3502 1.16939 17.41C1.28101 17.4697 1.40676 17.4981 1.53324 17.492C1.65635 17.4861 1.77568 17.4479 1.87917 17.3811L6.99979 14.6213L12.1204 17.3811C12.2239 17.4479 12.3432 17.4861 12.4663 17.492C12.5928 17.4981 12.7186 17.4697 12.8302 17.41C12.9418 17.3502 13.0351 17.2613 13.1002 17.1527C13.1653 17.044 13.1997 16.9198 13.1998 16.7932ZM2.4341 2.72741C2.58413 2.57738 2.78761 2.49309 2.99979 2.49309H10.9998C11.212 2.49309 11.4154 2.57738 11.5655 2.72741C11.7155 2.87743 11.7998 3.08092 11.7998 3.29309V15.5281L7.37821 13.2045C7.26539 13.132 7.13405 13.0933 6.99979 13.0933C6.86553 13.0933 6.73418 13.132 6.62137 13.2045L2.19979 15.5281V3.29309C2.19979 3.08092 2.28407 2.87743 2.4341 2.72741Z" fill="white" stroke="white" stroke-width="0.4"/>
</svg>
