<svg width="19" height="20" viewBox="0 0 19 20" fill="none" xmlns="http://www.w3.org/2000/svg">
<path d="M5.44799 13.1846L3.01099 10.7847H12.7115H12.9115V10.5847V9.41537V9.21537H12.7115H3.01099L5.44799 6.81547L5.5927 6.67297L5.44799 6.53047L4.60839 5.70369L4.45893 5.55651L4.31904 5.7128L0.600978 9.86661L0.481584 10L0.600977 10.1334L4.31904 14.2873L4.45893 14.4436L4.60839 14.2964L5.44799 13.4696L5.5927 13.3271L5.44799 13.1846Z" fill="white" stroke="white" stroke-width="0.4"/>
<path d="M5.78857 0.8H5.58857V1V2.2V2.4H5.78857H16.8633V17.6H5.78857H5.58857V17.8V19V19.2H5.78857H18.2501H18.4501V19V1V0.8H18.2501H5.78857Z" fill="white" stroke="white" stroke-width="0.4"/>
</svg>
