<svg width="20" height="17" viewBox="0 0 20 17" fill="none" xmlns="http://www.w3.org/2000/svg">
<path d="M19.412 14.2285H5.93961C5.83811 14.2285 5.75506 14.3116 5.75506 14.4132V15.7067C5.75506 15.8084 5.83811 15.8915 5.93961 15.8915H19.412C19.5135 15.8915 19.5966 15.8084 19.5966 15.7067V14.4132C19.5966 14.3116 19.5135 14.2285 19.412 14.2285ZM19.412 1.10889H5.93961C5.83811 1.10889 5.75506 1.19205 5.75506 1.29368V2.58715C5.75506 2.68879 5.83811 2.77194 5.93961 2.77194H19.412C19.5135 2.77194 19.5966 2.68879 19.5966 2.58715V1.29368C19.5966 1.19205 19.5135 1.10889 19.412 1.10889ZM19.412 7.66868H5.93961C5.83811 7.66868 5.75506 7.75183 5.75506 7.85346V9.14694C5.75506 9.24857 5.83811 9.33172 5.93961 9.33172H19.412C19.5135 9.33172 19.5966 9.24857 19.5966 9.14694V7.85346C19.5966 7.75183 19.5135 7.66868 19.412 7.66868ZM3.17131 13.1198H0.495289C0.444537 13.1198 0.403012 13.1613 0.403012 13.2122V13.9975C0.403012 14.0483 0.444537 14.0899 0.495289 14.0899H2.1655V14.5634H1.34193C1.29118 14.5634 1.24965 14.605 1.24965 14.6558V15.4411C1.24965 15.4919 1.29118 15.5335 1.34193 15.5335H2.1655V16.0301H0.495289C0.444537 16.0301 0.403012 16.0717 0.403012 16.1225V16.9078C0.403012 16.9586 0.444537 17.0002 0.495289 17.0002H3.17131C3.22206 17.0002 3.26359 16.9586 3.26359 16.9078V13.2122C3.26359 13.1613 3.22206 13.1198 3.17131 13.1198ZM0.495289 1.0165H1.37192V3.78824C1.37192 3.83906 1.41344 3.88063 1.46419 3.88063H2.38696C2.43771 3.88063 2.47924 3.83906 2.47924 3.78824V0.184981C2.47924 0.0833505 2.39619 0.000198364 2.29468 0.000198364H0.495289C0.444537 0.000198364 0.403012 0.0417745 0.403012 0.0925897V0.924111C0.403012 0.974927 0.444537 1.0165 0.495289 1.0165ZM3.17131 6.55998H0.495289C0.444537 6.55998 0.403012 6.60156 0.403012 6.65237V7.48389C0.403012 7.53471 0.444537 7.57629 0.495289 7.57629H2.07322L0.451457 9.37099C0.420869 9.40539 0.403672 9.44966 0.403012 9.49571V10.348C0.403012 10.3988 0.444537 10.4404 0.495289 10.4404H3.17131C3.22206 10.4404 3.26359 10.3988 3.26359 10.348V9.5165C3.26359 9.46569 3.22206 9.42411 3.17131 9.42411H1.59338L3.21514 7.62941C3.24573 7.59501 3.26293 7.55073 3.26359 7.50468V6.65237C3.26359 6.60156 3.22206 6.55998 3.17131 6.55998Z" fill="white"/>
</svg>
