<svg width="18" height="18" viewBox="0 0 18 18" fill="none" xmlns="http://www.w3.org/2000/svg">
<path fill-rule="evenodd" clip-rule="evenodd" d="M12.2726 6.54553C12.2726 7.41351 11.9278 8.24594 11.3141 8.8597C10.7003 9.47345 9.86789 9.81826 8.99991 9.81826C8.13193 9.81826 7.29949 9.47345 6.68574 8.8597C6.07198 8.24594 5.72718 7.41351 5.72718 6.54553C5.72718 5.67755 6.07198 4.84512 6.68574 4.23136C7.29949 3.61761 8.13193 3.2728 8.99991 3.2728C9.86789 3.2728 10.7003 3.61761 11.3141 4.23136C11.9278 4.84512 12.2726 5.67755 12.2726 6.54553ZM10.6363 6.54553C10.6363 6.97952 10.4639 7.39574 10.157 7.70262C9.85011 8.00949 9.4339 8.1819 8.99991 8.1819C8.56592 8.1819 8.1497 8.00949 7.84282 7.70262C7.53595 7.39574 7.36354 6.97952 7.36354 6.54553C7.36354 6.11154 7.53595 5.69533 7.84282 5.38845C8.1497 5.08157 8.56592 4.90917 8.99991 4.90917C9.4339 4.90917 9.85011 5.08157 10.157 5.38845C10.4639 5.69533 10.6363 6.11154 10.6363 6.54553Z" fill="white"/>
<path fill-rule="evenodd" clip-rule="evenodd" d="M8.99979 0.000198364C4.02933 0.000198364 -0.000213623 4.02974 -0.000213623 9.0002C-0.000213623 13.9707 4.02933 18.0002 8.99979 18.0002C13.9702 18.0002 17.9998 13.9707 17.9998 9.0002C17.9998 4.02974 13.9702 0.000198364 8.99979 0.000198364ZM1.63615 9.0002C1.63615 10.7102 2.21951 12.2844 3.19724 13.5346C3.88388 12.6328 4.7697 11.9021 5.7855 11.3994C6.8013 10.8966 7.91958 10.6356 9.05297 10.6366C10.1717 10.6355 11.2759 10.8898 12.2815 11.3801C13.287 11.8704 14.1674 12.5838 14.8555 13.4658C15.5644 12.5361 16.0417 11.4508 16.248 10.3C16.4542 9.14908 16.3834 7.96564 16.0415 6.84755C15.6995 5.72946 15.0962 4.70887 14.2815 3.87023C13.4669 3.03158 12.4642 2.39899 11.3565 2.0248C10.2488 1.6506 9.06786 1.54556 7.91149 1.71836C6.75512 1.89116 5.65652 2.33684 4.7066 3.01851C3.75667 3.70019 2.98272 4.59827 2.44879 5.63845C1.91486 6.67862 1.6363 7.83099 1.63615 9.0002ZM8.99979 16.3638C7.30938 16.3664 5.67 15.7848 4.35906 14.7177C4.88673 13.9623 5.58906 13.3455 6.40631 12.9199C7.22355 12.4942 8.13152 12.2723 9.05297 12.2729C9.96292 12.2722 10.8599 12.4886 11.6695 12.9041C12.479 13.3196 13.1777 13.9223 13.7076 14.662C12.3865 15.7639 10.7201 16.3662 8.99979 16.3638Z" fill="white"/>
</svg>
