<svg width="18" height="17" viewBox="0 0 18 17" fill="none" xmlns="http://www.w3.org/2000/svg">
<path d="M0.799786 15.7932V15.7932V3.0002C0.799786 2.41672 1.03157 1.85714 1.44415 1.44456C1.85673 1.03198 2.41631 0.800198 2.99979 0.800198H14.9998C15.5833 0.800198 16.1428 1.03198 16.5554 1.44456C16.968 1.85714 17.1998 2.41672 17.1998 3.0002V11.0002C17.1998 11.5837 16.968 12.1433 16.5554 12.5558C16.1428 12.9684 15.5833 13.2002 14.9998 13.2002H5.41383C5.41381 13.2002 5.4138 13.2002 5.41379 13.2002C5.20165 13.2003 4.99821 13.2846 4.84823 13.4346L4.84821 13.4346L1.99539 16.2874L0.799786 15.7932ZM0.799786 15.7932C0.799816 15.9318 0.840936 16.0671 0.917943 16.1823M0.799786 15.7932L0.917943 16.1823M0.917943 16.1823C0.994949 16.2974 1.10438 16.3871 1.23239 16.44M0.917943 16.1823L1.23239 16.44M1.23239 16.44C1.36039 16.4929 1.50121 16.5067 1.63704 16.4795M1.23239 16.44L1.63704 16.4795M1.63704 16.4795C1.77278 16.4524 1.89742 16.3856 1.99521 16.2876L1.63704 16.4795ZM5.41379 11.8002H5.41374C4.83032 11.8003 4.27083 12.0322 3.85834 12.4448L2.19979 14.1034V3.0002C2.19979 2.78803 2.28407 2.58454 2.4341 2.43451C2.58413 2.28448 2.78761 2.2002 2.99979 2.2002H14.9998C15.212 2.2002 15.4154 2.28448 15.5655 2.43451C15.7155 2.58454 15.7998 2.78803 15.7998 3.0002V11.0002C15.7998 11.2124 15.7155 11.4159 15.5655 11.5659C15.4154 11.7159 15.212 11.8002 14.9998 11.8002H5.41379Z" fill="white" stroke="white" stroke-width="0.4"/>
</svg>
