<svg width="34" height="34" viewBox="0 0 34 34" fill="none" xmlns="http://www.w3.org/2000/svg">
<path d="M20.8773 17L32.7023 5.20252C33.2202 4.68469 33.5111 3.98235 33.5111 3.25002C33.5111 2.51769 33.2202 1.81536 32.7023 1.29752C32.1845 0.779687 31.4822 0.48877 30.7498 0.48877C30.0175 0.48877 29.3152 0.779687 28.7973 1.29752L16.9998 13.1225L5.20233 1.29752C4.6845 0.779687 3.98216 0.48877 3.24983 0.48877C2.5175 0.48877 1.81517 0.779687 1.29733 1.29752C0.779497 1.81536 0.48858 2.51769 0.48858 3.25002C0.48858 3.98235 0.779497 4.68469 1.29733 5.20252L13.1223 17L1.29733 28.7975C1.03958 29.0532 0.834995 29.3573 0.695381 29.6924C0.555768 30.0275 0.483887 30.387 0.483887 30.75C0.483887 31.1131 0.555768 31.4725 0.695381 31.8076C0.834995 32.1427 1.03958 32.4469 1.29733 32.7025C1.55298 32.9603 1.85713 33.1649 2.19225 33.3045C2.52736 33.4441 2.8868 33.516 3.24983 33.516C3.61286 33.516 3.97231 33.4441 4.30742 33.3045C4.64253 33.1649 4.94668 32.9603 5.20233 32.7025L16.9998 20.8775L28.7973 32.7025C29.053 32.9603 29.3571 33.1649 29.6922 33.3045C30.0274 33.4441 30.3868 33.516 30.7498 33.516C31.1129 33.516 31.4723 33.4441 31.8074 33.3045C32.1425 33.1649 32.4467 32.9603 32.7023 32.7025C32.9601 32.4469 33.1647 32.1427 33.3043 31.8076C33.4439 31.4725 33.5158 31.1131 33.5158 30.75C33.5158 30.387 33.4439 30.0275 33.3043 29.6924C33.1647 29.3573 32.9601 29.0532 32.7023 28.7975L20.8773 17Z" fill="white"/>
</svg>
