<svg width="13" height="12" viewBox="0 0 13 12" fill="none" xmlns="http://www.w3.org/2000/svg">
<path d="M11.7 4.26584H8.0522L8.78215 2.37178C8.91345 2.02976 8.84715 1.65061 8.6034 1.35809C8.35965 1.06557 7.96445 0.890625 7.5478 0.890625H6.5C6.30695 0.890625 6.1243 0.96488 6.00015 1.09314L2.94515 4.26584H1.3C0.58305 4.26584 0 4.77043 0 5.39091V10.4537C0 11.0742 0.58305 11.5788 1.3 11.5788H9.94955C10.214 11.578 10.472 11.5078 10.6894 11.3775C10.9068 11.2471 11.0733 11.0627 11.167 10.8486L12.959 6.71343C12.9863 6.65027 13.0001 6.58339 13 6.51598V5.39091C13 4.77043 12.4169 4.26584 11.7 4.26584ZM1.3 5.39091H2.6V10.4537H1.3V5.39091ZM11.7 6.41416L9.94955 10.4537H3.9V5.03201L6.8042 2.0157H7.5491L6.5338 4.65005C6.50084 4.73461 6.49165 4.82475 6.50698 4.91299C6.52232 5.00124 6.56174 5.08505 6.62198 5.15748C6.68222 5.22991 6.76154 5.28886 6.85337 5.32946C6.9452 5.37005 7.04688 5.39112 7.15 5.39091H11.7V6.41416Z" fill="white"/>
</svg>
