<svg width="14" height="8" viewBox="0 0 14 8" fill="none" xmlns="http://www.w3.org/2000/svg">
<path d="M7 0.672363C1.90909 0.672363 0 4.23511 0 4.23511C0 4.23511 1.90909 7.79785 7 7.79785C12.0909 7.79785 14 4.23511 14 4.23511C14 4.23511 12.0909 0.672363 7 0.672363ZM7 2.00839C8.757 2.00839 10.1818 3.00552 10.1818 4.23511C10.1818 5.4647 8.757 6.46182 7 6.46182C5.243 6.46182 3.81818 5.4647 3.81818 4.23511C3.81818 3.00552 5.243 2.00839 7 2.00839ZM7 2.89908C6.49368 2.89908 6.00809 3.03984 5.65007 3.29039C5.29204 3.54095 5.09091 3.88077 5.09091 4.23511C5.09091 4.58944 5.29204 4.92927 5.65007 5.17982C6.00809 5.43038 6.49368 5.57114 7 5.57114C7.50632 5.57114 7.99191 5.43038 8.34993 5.17982C8.70796 4.92927 8.90909 4.58944 8.90909 4.23511C8.90909 3.88077 8.70796 3.54095 8.34993 3.29039C7.99191 3.03984 7.50632 2.89908 7 2.89908Z" fill="white"/>
</svg>
