<svg width="14" height="10" viewBox="0 0 14 10" fill="none" xmlns="http://www.w3.org/2000/svg">
<path d="M6.99992 0.333496C2.15143 0.333496 0.333252 5.00016 0.333252 5.00016C0.333252 5.00016 2.15143 9.66683 6.99992 9.66683C11.8484 9.66683 13.6666 5.00016 13.6666 5.00016C13.6666 5.00016 11.8484 0.333496 6.99992 0.333496ZM6.99992 2.0835C8.67325 2.0835 10.0302 3.38958 10.0302 5.00016C10.0302 6.61075 8.67325 7.91683 6.99992 7.91683C5.32659 7.91683 3.96962 6.61075 3.96962 5.00016C3.96962 3.38958 5.32659 2.0835 6.99992 2.0835ZM6.99992 3.25016C6.51771 3.25016 6.05524 3.43454 5.71427 3.76273C5.37329 4.09091 5.18174 4.53603 5.18174 5.00016C5.18174 5.46429 5.37329 5.90941 5.71427 6.2376C6.05524 6.56579 6.51771 6.75016 6.99992 6.75016C7.48213 6.75016 7.94459 6.56579 8.28557 6.2376C8.62654 5.90941 8.8181 5.46429 8.8181 5.00016C8.8181 4.53603 8.62654 4.09091 8.28557 3.76273C7.94459 3.43454 7.48213 3.25016 6.99992 3.25016Z" fill="#9397B2"/>
</svg>
