<svg width="10" height="14" viewBox="0 0 10 14" fill="none" xmlns="http://www.w3.org/2000/svg">
<path d="M4.99992 0.333496C2.42259 0.333496 0.333252 2.42283 0.333252 5.00016C0.333252 7.64416 3.26925 11.5468 4.48392 13.0475C4.75059 13.3768 5.24925 13.3768 5.51592 13.0475C6.73059 11.5468 9.66659 7.64416 9.66659 5.00016C9.66659 2.42283 7.57725 0.333496 4.99992 0.333496ZM4.99992 6.66683C4.07925 6.66683 3.33325 5.92083 3.33325 5.00016C3.33325 4.0795 4.07925 3.3335 4.99992 3.3335C5.92059 3.3335 6.66659 4.0795 6.66659 5.00016C6.66659 5.92083 5.92059 6.66683 4.99992 6.66683Z" fill="#9397B2"/>
</svg>
