<svg width="16" height="15" viewBox="0 0 16 15" fill="none" xmlns="http://www.w3.org/2000/svg">
<path d="M8.01825 0.333496C7.79958 0.333496 7.59474 0.441257 7.47007 0.621257L4.44533 5.00016H1.33465C1.12599 5.00016 0.930069 5.09718 0.803403 5.26318C0.678069 5.42852 0.635455 5.64325 0.690121 5.84391L2.39715 12.021C2.55649 12.597 3.08498 13.0002 3.68231 13.0002H10.2682L9.39194 9.54183C9.24794 8.97516 9.37055 8.38658 9.72788 7.92725C10.0832 7.46991 10.6395 7.19808 11.2149 7.19808C11.5355 7.19808 11.8541 7.2816 12.1367 7.44027L14.5013 8.76969L15.3086 5.84521C15.3639 5.64455 15.322 5.42852 15.1966 5.26318C15.07 5.09718 14.8734 5.00016 14.6654 5.00016H11.5599L8.56903 0.623861C8.44503 0.442527 8.24018 0.334163 8.02085 0.333496H8.01825ZM8.01564 2.17725L9.94403 5.00016H6.06512L8.01564 2.17725ZM11.1654 8.53271C10.8541 8.56237 10.5964 8.8637 10.6849 9.2137L11.8815 13.9377C11.9815 14.3317 12.5116 14.4023 12.711 14.0483L13.3542 12.9077L14.7917 14.7502C15.015 15.0428 15.4339 15.0985 15.7266 14.8752C16.0192 14.6518 16.0749 14.2329 15.8516 13.9403L14.4375 12.1291L15.6328 11.827C16.0268 11.7277 16.0982 11.1969 15.7435 10.9963L11.4831 8.60173C11.3783 8.54289 11.2691 8.52283 11.1654 8.53271Z" fill="#9397B2"/>
</svg>
